<svg xmlns="http://www.w3.org/2000/svg" viewBox="0 0 9700 100" width="9700" height="100"><path d="M83.764 29.908l.001 38.637L50.383 88 17 68.817l.002-38.636 33.379-19.456 33.383 19.183z" fill="#ffffff" fill-rule="evenodd"/><path d="M81.152 32.083l-.175 35.288-30.77 17.281-30.594-18.01.178-35.288 30.767-17.28 30.594 18.009z" fill="#ffffff" fill-rule="evenodd"/><path d="M37 59.992L43.087 69 68 59" fill="none" stroke="#ffffff" stroke-width="3" stroke-dasharray="0,37.716847509234256" stroke-dashoffset="37.716848" stroke-miterlimit="10"/><path d="M53.115 26.356l3.058.951-8.478 27.261-3.058-.951z" fill="#ffffff"/><path d="M37 30.937c-3.239 0-5.875 4.134-5.875 9.213 0 5.079 2.636 9.213 5.875 9.213s5.875-4.134 5.875-9.213c0-5.079-2.636-9.213-5.875-9.213zm0 1.536c2.709 0 4.896 3.429 4.896 7.677 0 4.249-2.187 7.677-4.896 7.677s-4.896-3.428-4.896-7.677c0-4.248 2.187-7.677 4.896-7.677z" fill="#ffffff" stroke="#ffffff" stroke-width="1.7"/><path d="M183.764 29.908l.001 38.637L150.383 88 117 68.817l.002-38.636 33.379-19.456 33.383 19.183z" fill="#ffffff" fill-rule="evenodd"/><path d="M181.152 32.083l-.175 35.288-30.77 17.281-30.594-18.01.178-35.288 30.767-17.28 30.594 18.009z" fill="#fefeff" fill-rule="evenodd"/><path d="M137 59.992L143.087 69 168 59" fill="none" stroke="#ffffff" stroke-width="3" stroke-dasharray="0,37.716847509234256" stroke-dashoffset="37.716848" stroke-miterlimit="10"/><path d="M153.115 26.356l3.058.951-8.478 27.261-3.058-.951z" fill="#ffffff"/><path d="M137 30.937c-3.239 0-5.875 4.134-5.875 9.213 0 5.079 2.636 9.213 5.875 9.213s5.875-4.134 5.875-9.213c0-5.079-2.636-9.213-5.875-9.213zm0 1.536c2.709 0 4.896 3.429 4.896 7.677 0 4.249-2.187 7.677-4.896 7.677s-4.896-3.428-4.896-7.677c0-4.248 2.187-7.677 4.896-7.677z" fill="#ffffff" stroke="#ffffff" stroke-width="1.7"/><path d="M283.764 29.908l.001 38.637L250.383 88 217 68.817l.002-38.636 33.379-19.456 33.383 19.183z" fill="#ffffff" fill-rule="evenodd"/><path d="M281.152 32.083l-.175 35.288-30.77 17.281-30.594-18.01.178-35.288 30.767-17.28 30.594 18.009z" fill="#fbfcfd" fill-rule="evenodd"/><path d="M237 59.992L243.087 69 268 59" fill="none" stroke="#ffffff" stroke-width="3" stroke-dasharray="0,37.716847509234256" stroke-dashoffset="37.716848" stroke-miterlimit="10"/><path d="M253.115 26.356l3.058.951-8.478 27.261-3.058-.951z" fill="#ffffff"/><path d="M237 30.937c-3.239 0-5.875 4.134-5.875 9.213 0 5.079 2.636 9.213 5.875 9.213s5.875-4.134 5.875-9.213c0-5.079-2.636-9.213-5.875-9.213zm0 1.536c2.709 0 4.896 3.429 4.896 7.677 0 4.249-2.187 7.677-4.896 7.677s-4.896-3.428-4.896-7.677c0-4.248 2.187-7.677 4.896-7.677z" fill="#ffffff" stroke="#ffffff" stroke-width="1.7"/><path d="M383.764 29.908l.001 38.637L350.383 88 317 68.817l.002-38.636 33.379-19.456 33.383 19.183z" fill="#ffffff" fill-rule="evenodd"/><path d="M381.152 32.083l-.175 35.288-30.77 17.281-30.594-18.01.178-35.288 30.767-17.28 30.594 18.009z" fill="#f4f8fb" fill-rule="evenodd"/><path d="M337 59.992L343.087 69 368 59" fill="none" stroke="#ffffff" stroke-width="3" stroke-dasharray="0,37.716847509234256" stroke-dashoffset="37.716848" stroke-miterlimit="10"/><path d="M353.115 26.356l3.058.951-8.478 27.261-3.058-.951z" fill="#ffffff"/><path d="M337 30.937c-3.239 0-5.875 4.134-5.875 9.213 0 5.079 2.636 9.213 5.875 9.213s5.875-4.134 5.875-9.213c0-5.079-2.636-9.213-5.875-9.213zm0 1.536c2.709 0 4.896 3.429 4.896 7.677 0 4.249-2.187 7.677-4.896 7.677s-4.896-3.428-4.896-7.677c0-4.248 2.187-7.677 4.896-7.677z" fill="#ffffff" stroke="#ffffff" stroke-width="1.7"/><path d="M483.764 29.908l.001 38.637L450.383 88 417 68.817l.002-38.636 33.379-19.456 33.383 19.183z" fill="#ffffff" fill-rule="evenodd"/><path d="M481.152 32.083l-.175 35.288-30.77 17.281-30.594-18.01.178-35.288 30.767-17.28 30.594 18.009z" fill="#e9f1f7" fill-rule="evenodd"/><path d="M437 59.992L443.087 69 468 59" fill="none" stroke="#ffffff" stroke-width="3" stroke-dasharray="0,37.716847509234256" stroke-dashoffset="37.716848" stroke-miterlimit="10"/><path d="M453.115 26.356l3.058.951-8.478 27.261-3.058-.951z" fill="#ffffff"/><path d="M437 30.937c-3.239 0-5.875 4.134-5.875 9.213 0 5.079 2.636 9.213 5.875 9.213s5.875-4.134 5.875-9.213c0-5.079-2.636-9.213-5.875-9.213zm0 1.536c2.709 0 4.896 3.429 4.896 7.677 0 4.249-2.187 7.677-4.896 7.677s-4.896-3.428-4.896-7.677c0-4.248 2.187-7.677 4.896-7.677z" fill="#ffffff" stroke="#ffffff" stroke-width="1.7"/><path d="M583.764 29.908l.001 38.637L550.383 88 517 68.817l.002-38.636 33.379-19.456 33.383 19.183z" fill="#ffffff" fill-rule="evenodd"/><path d="M581.152 32.083l-.175 35.288-30.77 17.281-30.594-18.01.178-35.288 30.767-17.28 30.594 18.009z" fill="#d9e6f0" fill-rule="evenodd"/><path d="M537 59.992L543.087 69 568 59" fill="none" stroke="#ffffff" stroke-width="3" stroke-dasharray="0,37.716847509234256" stroke-dashoffset="37.716848" stroke-miterlimit="10"/><path d="M553.115 26.356l3.058.951-8.478 27.261-3.058-.951z" fill="#ffffff"/><path d="M537 30.937c-3.239 0-5.875 4.134-5.875 9.213 0 5.079 2.636 9.213 5.875 9.213s5.875-4.134 5.875-9.213c0-5.079-2.636-9.213-5.875-9.213zm0 1.536c2.709 0 4.896 3.429 4.896 7.677 0 4.249-2.187 7.677-4.896 7.677s-4.896-3.428-4.896-7.677c0-4.248 2.187-7.677 4.896-7.677z" fill="#ffffff" stroke="#ffffff" stroke-width="1.7"/><path d="M683.764 29.908l.001 38.637L650.383 88 617 68.817l.002-38.636 33.379-19.456 33.383 19.183z" fill="#ffffff" fill-rule="evenodd"/><path d="M681.152 32.083l-.175 35.288-30.77 17.281-30.594-18.01.178-35.288 30.767-17.28 30.594 18.009z" fill="#c2d7e8" fill-rule="evenodd"/><path d="M637 59.992L643.087 69 668 59" fill="none" stroke="#ffffff" stroke-width="3" stroke-dasharray="0,37.716847509234256" stroke-dashoffset="37.716848" stroke-miterlimit="10"/><path d="M653.115 26.356l3.058.951-8.478 27.261-3.058-.951z" fill="#ffffff"/><path d="M637 30.937c-3.239 0-5.875 4.134-5.875 9.213 0 5.079 2.636 9.213 5.875 9.213s5.875-4.134 5.875-9.213c0-5.079-2.636-9.213-5.875-9.213zm0 1.536c2.709 0 4.896 3.429 4.896 7.677 0 4.249-2.187 7.677-4.896 7.677s-4.896-3.428-4.896-7.677c0-4.248 2.187-7.677 4.896-7.677z" fill="#ffffff" stroke="#ffffff" stroke-width="1.7"/><path d="M783.764 29.908l.001 38.637L750.383 88 717 68.817l.002-38.636 33.379-19.456 33.383 19.183z" fill="#ffffff" fill-rule="evenodd"/><path d="M781.152 32.083l-.175 35.288-30.77 17.281-30.594-18.01.178-35.288 30.767-17.28 30.594 18.009z" fill="#a7c5dd" fill-rule="evenodd"/><path d="M737 59.992L743.087 69 768 59" fill="none" stroke="#ffffff" stroke-width="3" stroke-dasharray="0,37.716847509234256" stroke-dashoffset="37.716848" stroke-miterlimit="10"/><path d="M753.115 26.356l3.058.951-8.478 27.261-3.058-.951z" fill="#ffffff"/><path d="M737 30.937c-3.239 0-5.875 4.134-5.875 9.213 0 5.079 2.636 9.213 5.875 9.213s5.875-4.134 5.875-9.213c0-5.079-2.636-9.213-5.875-9.213zm0 1.536c2.709 0 4.896 3.429 4.896 7.677 0 4.249-2.187 7.677-4.896 7.677s-4.896-3.428-4.896-7.677c0-4.248 2.187-7.677 4.896-7.677z" fill="#ffffff" stroke="#ffffff" stroke-width="1.7"/><path d="M883.764 29.908l.001 38.637L850.383 88 817 68.817l.002-38.636 33.379-19.456 33.383 19.183z" fill="#ffffff" fill-rule="evenodd"/><path d="M881.152 32.083l-.175 35.288-30.77 17.281-30.594-18.01.178-35.288 30.767-17.28 30.594 18.009z" fill="#8ab2d2" fill-rule="evenodd"/><path d="M837 59.992L843.087 69 868 59" fill="none" stroke="#ffffff" stroke-width="3" stroke-dasharray="0,37.716847509234256" stroke-dashoffset="37.716848" stroke-miterlimit="10"/><path d="M853.115 26.356l3.058.951-8.478 27.261-3.058-.951z" fill="#ffffff"/><path d="M837 30.937c-3.239 0-5.875 4.134-5.875 9.213 0 5.079 2.636 9.213 5.875 9.213s5.875-4.134 5.875-9.213c0-5.079-2.636-9.213-5.875-9.213zm0 1.536c2.709 0 4.896 3.429 4.896 7.677 0 4.249-2.187 7.677-4.896 7.677s-4.896-3.428-4.896-7.677c0-4.248 2.187-7.677 4.896-7.677z" fill="#ffffff" stroke="#ffffff" stroke-width="1.7"/><path d="M983.764 29.908l.001 38.637L950.383 88 917 68.817l.002-38.636 33.379-19.456 33.383 19.183z" fill="#ffffff" fill-rule="evenodd"/><path d="M981.152 32.083l-.175 35.288-30.77 17.281-30.594-18.01.178-35.288 30.767-17.28 30.594 18.009z" fill="#70a1c9" fill-rule="evenodd"/><path d="M937 59.992L943.087 69 968 59" fill="none" stroke="#ffffff" stroke-width="3" stroke-dasharray="0,37.716847509234256" stroke-dashoffset="37.716848" stroke-miterlimit="10"/><path d="M953.115 26.356l3.058.951-8.478 27.261-3.058-.951z" fill="#ffffff"/><path d="M937 30.937c-3.239 0-5.875 4.134-5.875 9.213 0 5.079 2.636 9.213 5.875 9.213s5.875-4.134 5.875-9.213c0-5.079-2.636-9.213-5.875-9.213zm0 1.536c2.709 0 4.896 3.429 4.896 7.677 0 4.249-2.187 7.677-4.896 7.677s-4.896-3.428-4.896-7.677c0-4.248 2.187-7.677 4.896-7.677z" fill="#ffffff" stroke="#ffffff" stroke-width="1.7"/><path d="M1083.764 29.908l.001 38.637L1050.383 88 1017 68.817l.002-38.636 33.379-19.456 33.383 19.183z" fill="#ffffff" fill-rule="evenodd"/><path d="M1081.152 32.083l-.175 35.288-30.77 17.281-30.594-18.01.178-35.288 30.767-17.28 30.594 18.009z" fill="#5b93c0" fill-rule="evenodd"/><path d="M1037 59.992l6.087 9.008L1068 59" fill="none" stroke="#ffffff" stroke-width="3" stroke-dasharray="0,37.716847509234256" stroke-dashoffset="37.716848" stroke-miterlimit="10"/><path d="M1053.115 26.356l3.058.951-8.478 27.261-3.058-.951z" fill="#ffffff"/><path d="M1037 30.937c-3.239 0-5.875 4.134-5.875 9.213 0 5.079 2.636 9.213 5.875 9.213s5.875-4.134 5.875-9.213c0-5.079-2.636-9.213-5.875-9.213zm0 1.536c2.709 0 4.896 3.429 4.896 7.677 0 4.249-2.187 7.677-4.896 7.677s-4.896-3.428-4.896-7.677c0-4.248 2.187-7.677 4.896-7.677z" fill="#ffffff" stroke="#ffffff" stroke-width="1.7"/><path d="M1183.764 29.908l.001 38.637L1150.383 88 1117 68.817l.002-38.636 33.379-19.456 33.383 19.183z" fill="#ffffff" fill-rule="evenodd"/><path d="M1181.152 32.083l-.175 35.288-30.77 17.281-30.594-18.01.178-35.288 30.767-17.28 30.594 18.009z" fill="#4987ba" fill-rule="evenodd"/><path d="M1137 59.992l6.087 9.008L1168 59" fill="none" stroke="#ffffff" stroke-width="3" stroke-dasharray="0,37.716847509234256" stroke-dashoffset="37.716848" stroke-miterlimit="10"/><path d="M1153.115 26.356l3.058.951-8.478 27.261-3.058-.951z" fill="#ffffff"/><path d="M1137 30.937c-3.239 0-5.875 4.134-5.875 9.213 0 5.079 2.636 9.213 5.875 9.213s5.875-4.134 5.875-9.213c0-5.079-2.636-9.213-5.875-9.213zm0 1.536c2.709 0 4.896 3.429 4.896 7.677 0 4.249-2.187 7.677-4.896 7.677s-4.896-3.428-4.896-7.677c0-4.248 2.187-7.677 4.896-7.677z" fill="#ffffff" stroke="#ffffff" stroke-width="1.7"/><path d="M1283.764 29.908l.001 38.637L1250.383 88 1217 68.817l.002-38.636 33.379-19.456 33.383 19.183z" fill="#ffffff" fill-rule="evenodd"/><path d="M1281.152 32.083l-.175 35.288-30.77 17.281-30.594-18.01.178-35.288 30.767-17.28 30.594 18.009z" fill="#3a7db4" fill-rule="evenodd"/><path d="M1237 59.992l6.087 9.008L1268 59" fill="none" stroke="#ffffff" stroke-width="3" stroke-dasharray="0,37.716847509234256" stroke-dashoffset="37.716848" stroke-miterlimit="10"/><path d="M1253.115 26.356l3.058.951-8.478 27.261-3.058-.951z" fill="#ffffff"/><path d="M1237 30.937c-3.239 0-5.875 4.134-5.875 9.213 0 5.079 2.636 9.213 5.875 9.213s5.875-4.134 5.875-9.213c0-5.079-2.636-9.213-5.875-9.213zm0 1.536c2.709 0 4.896 3.429 4.896 7.677 0 4.249-2.187 7.677-4.896 7.677s-4.896-3.428-4.896-7.677c0-4.248 2.187-7.677 4.896-7.677z" fill="#ffffff" stroke="#ffffff" stroke-width="1.7"/><path d="M1383.764 29.908l.001 38.637L1350.383 88 1317 68.817l.002-38.636 33.379-19.456 33.383 19.183z" fill="#ffffff" fill-rule="evenodd"/><path d="M1381.152 32.083l-.175 35.288-30.77 17.281-30.594-18.01.178-35.288 30.767-17.28 30.594 18.009z" fill="#2e76b0" fill-rule="evenodd"/><path d="M1337 59.992l6.087 9.008L1368 59" fill="none" stroke="#ffffff" stroke-width="3" stroke-dasharray="0,37.716847509234256" stroke-dashoffset="37.716848" stroke-miterlimit="10"/><path d="M1353.115 26.356l3.058.951-8.478 27.261-3.058-.951z" fill="#ffffff"/><path d="M1337 30.937c-3.239 0-5.875 4.134-5.875 9.213 0 5.079 2.636 9.213 5.875 9.213s5.875-4.134 5.875-9.213c0-5.079-2.636-9.213-5.875-9.213zm0 1.536c2.709 0 4.896 3.429 4.896 7.677 0 4.249-2.187 7.677-4.896 7.677s-4.896-3.428-4.896-7.677c0-4.248 2.187-7.677 4.896-7.677z" fill="#ffffff" stroke="#ffffff" stroke-width="1.7"/><path d="M1483.764 29.908l.001 38.637L1450.383 88 1417 68.817l.002-38.636 33.379-19.456 33.383 19.183z" fill="#ffffff" fill-rule="evenodd"/><path d="M1481.152 32.083l-.175 35.288-30.77 17.281-30.594-18.01.178-35.288 30.767-17.28 30.594 18.009z" fill="#256fac" fill-rule="evenodd"/><path d="M1437 59.992l6.087 9.008L1468 59" fill="none" stroke="#ffffff" stroke-width="3" stroke-dasharray="0,37.716847509234256" stroke-dashoffset="37.716848" stroke-miterlimit="10"/><path d="M1453.115 26.356l3.058.951-8.478 27.261-3.058-.951z" fill="#ffffff"/><path d="M1437 30.937c-3.239 0-5.875 4.134-5.875 9.213 0 5.079 2.636 9.213 5.875 9.213s5.875-4.134 5.875-9.213c0-5.079-2.636-9.213-5.875-9.213zm0 1.536c2.709 0 4.896 3.429 4.896 7.677 0 4.249-2.187 7.677-4.896 7.677s-4.896-3.428-4.896-7.677c0-4.248 2.187-7.677 4.896-7.677z" fill="#ffffff" stroke="#ffffff" stroke-width="1.7"/><path d="M1583.764 29.908l.001 38.637L1550.383 88 1517 68.817l.002-38.636 33.379-19.456 33.383 19.183z" fill="#ffffff" fill-rule="evenodd"/><path d="M1581.152 32.083l-.175 35.288-30.77 17.281-30.594-18.01.178-35.288 30.767-17.28 30.594 18.009z" fill="#1d6aa9" fill-rule="evenodd"/><path d="M1537 59.992l6.087 9.008L1568 59" fill="none" stroke="#ffffff" stroke-width="3" stroke-dasharray="0,37.716847509234256" stroke-dashoffset="37.716848" stroke-miterlimit="10"/><path d="M1553.115 26.356l3.058.951-8.478 27.261-3.058-.951z" fill="#ffffff"/><path d="M1537 30.937c-3.239 0-5.875 4.134-5.875 9.213 0 5.079 2.636 9.213 5.875 9.213s5.875-4.134 5.875-9.213c0-5.079-2.636-9.213-5.875-9.213zm0 1.536c2.709 0 4.896 3.429 4.896 7.677 0 4.249-2.187 7.677-4.896 7.677s-4.896-3.428-4.896-7.677c0-4.248 2.187-7.677 4.896-7.677z" fill="#ffffff" stroke="#ffffff" stroke-width="1.7"/><path d="M1683.764 29.908l.001 38.637L1650.383 88 1617 68.817l.002-38.636 33.379-19.456 33.383 19.183z" fill="#ffffff" fill-rule="evenodd"/><path d="M1681.152 32.083l-.175 35.288-30.77 17.281-30.594-18.01.178-35.288 30.767-17.28 30.594 18.009z" fill="#1666a6" fill-rule="evenodd"/><path d="M1637 59.992l6.087 9.008L1668 59" fill="none" stroke="#ffffff" stroke-width="3" stroke-dasharray="0,37.716847509234256" stroke-dashoffset="37.716848" stroke-miterlimit="10"/><path d="M1653.115 26.356l3.058.951-8.478 27.261-3.058-.951z" fill="#ffffff"/><path d="M1637 30.937c-3.239 0-5.875 4.134-5.875 9.213 0 5.079 2.636 9.213 5.875 9.213s5.875-4.134 5.875-9.213c0-5.079-2.636-9.213-5.875-9.213zm0 1.536c2.709 0 4.896 3.429 4.896 7.677 0 4.249-2.187 7.677-4.896 7.677s-4.896-3.428-4.896-7.677c0-4.248 2.187-7.677 4.896-7.677z" fill="#ffffff" stroke="#ffffff" stroke-width="1.7"/><path d="M1783.764 29.908l.001 38.637L1750.383 88 1717 68.817l.002-38.636 33.379-19.456 33.383 19.183z" fill="#ffffff" fill-rule="evenodd"/><path d="M1781.152 32.083l-.175 35.288-30.77 17.281-30.594-18.01.178-35.288 30.767-17.28 30.594 18.009z" fill="#1162a4" fill-rule="evenodd"/><path d="M1737 59.992l6.087 9.008L1768 59" fill="none" stroke="#ffffff" stroke-width="3" stroke-dasharray="0,37.716847509234256" stroke-dashoffset="37.716848" stroke-miterlimit="10"/><path d="M1753.115 26.356l3.058.951-8.478 27.261-3.058-.951z" fill="#ffffff"/><path d="M1737 30.937c-3.239 0-5.875 4.134-5.875 9.213 0 5.079 2.636 9.213 5.875 9.213s5.875-4.134 5.875-9.213c0-5.079-2.636-9.213-5.875-9.213zm0 1.536c2.709 0 4.896 3.429 4.896 7.677 0 4.249-2.187 7.677-4.896 7.677s-4.896-3.428-4.896-7.677c0-4.248 2.187-7.677 4.896-7.677z" fill="#ffffff" stroke="#ffffff" stroke-width="1.7"/><path d="M1883.764 29.908l.001 38.637L1850.383 88 1817 68.817l.002-38.636 33.379-19.456 33.383 19.183z" fill="#ffffff" fill-rule="evenodd"/><path d="M1881.152 32.083l-.175 35.288-30.77 17.281-30.594-18.01.178-35.288 30.767-17.28 30.594 18.009z" fill="#0d5fa3" fill-rule="evenodd"/><path d="M1837 59.992l6.087 9.008L1868 59" fill="none" stroke="#ffffff" stroke-width="3" stroke-dasharray="0,37.716847509234256" stroke-dashoffset="37.716848" stroke-miterlimit="10"/><path d="M1853.115 26.356l3.058.951-8.478 27.261-3.058-.951z" fill="#ffffff"/><path d="M1837 30.937c-3.239 0-5.875 4.134-5.875 9.213 0 5.079 2.636 9.213 5.875 9.213s5.875-4.134 5.875-9.213c0-5.079-2.636-9.213-5.875-9.213zm0 1.536c2.709 0 4.896 3.429 4.896 7.677 0 4.249-2.187 7.677-4.896 7.677s-4.896-3.428-4.896-7.677c0-4.248 2.187-7.677 4.896-7.677z" fill="#ffffff" stroke="#ffffff" stroke-width="1.7"/><path d="M1983.764 29.908l.001 38.637L1950.383 88 1917 68.817l.002-38.636 33.379-19.456 33.383 19.183z" fill="#ffffff" fill-rule="evenodd"/><path d="M1981.152 32.083l-.175 35.288-30.77 17.281-30.594-18.01.178-35.288 30.767-17.28 30.594 18.009z" fill="#095da1" fill-rule="evenodd"/><path d="M1937 59.992l6.087 9.008L1968 59" fill="none" stroke="#ffffff" stroke-width="3" stroke-dasharray="0,37.716847509234256" stroke-dashoffset="37.716848" stroke-miterlimit="10"/><path d="M1953.115 26.356l3.058.951-8.478 27.261-3.058-.951z" fill="#ffffff"/><path d="M1937 30.937c-3.239 0-5.875 4.134-5.875 9.213 0 5.079 2.636 9.213 5.875 9.213s5.875-4.134 5.875-9.213c0-5.079-2.636-9.213-5.875-9.213zm0 1.536c2.709 0 4.896 3.429 4.896 7.677 0 4.249-2.187 7.677-4.896 7.677s-4.896-3.428-4.896-7.677c0-4.248 2.187-7.677 4.896-7.677z" fill="#ffffff" stroke="#ffffff" stroke-width="1.7"/><g><path d="M2083.764 29.908l.001 38.637L2050.383 88 2017 68.817l.002-38.636 33.379-19.456 33.383 19.183z" fill="#ffffff" fill-rule="evenodd"/><path d="M2081.152 32.083l-.175 35.288-30.77 17.281-30.594-18.01.178-35.288 30.767-17.28 30.594 18.009z" fill="#075ca0" fill-rule="evenodd"/><path d="M2037 59.992l6.087 9.008L2068 59" fill="none" stroke="#ffffff" stroke-width="3" stroke-dasharray="0,37.716847509234256" stroke-dashoffset="37.716848" stroke-miterlimit="10"/><path d="M2053.115 26.356l3.058.951-8.478 27.261-3.058-.951z" fill="#ffffff"/><path d="M2037 30.937c-3.239 0-5.875 4.134-5.875 9.213 0 5.079 2.636 9.213 5.875 9.213s5.875-4.134 5.875-9.213c0-5.079-2.636-9.213-5.875-9.213zm0 1.536c2.709 0 4.896 3.429 4.896 7.677 0 4.249-2.187 7.677-4.896 7.677s-4.896-3.428-4.896-7.677c0-4.248 2.187-7.677 4.896-7.677z" fill="#ffffff" stroke="#ffffff" stroke-width="1.7"/></g><g><path d="M2183.764 29.908l.001 38.637L2150.383 88 2117 68.817l.002-38.636 33.379-19.456 33.383 19.183z" fill="#ffffff" fill-rule="evenodd"/><path d="M2181.152 32.083l-.175 35.288-30.77 17.281-30.594-18.01.178-35.288 30.767-17.28 30.594 18.009z" fill="#055aa0" fill-rule="evenodd"/><path d="M2137 59.992l6.087 9.008L2168 59" fill="none" stroke="#ffffff" stroke-width="3" stroke-dasharray="0,37.716847509234256" stroke-dashoffset="37.716848" stroke-miterlimit="10"/><path d="M2153.115 26.356l3.058.951-8.478 27.261-3.058-.951z" fill="#ffffff"/><path d="M2137 30.937c-3.239 0-5.875 4.134-5.875 9.213 0 5.079 2.636 9.213 5.875 9.213s5.875-4.134 5.875-9.213c0-5.079-2.636-9.213-5.875-9.213zm0 1.536c2.709 0 4.896 3.429 4.896 7.677 0 4.249-2.187 7.677-4.896 7.677s-4.896-3.428-4.896-7.677c0-4.248 2.187-7.677 4.896-7.677z" fill="#ffffff" stroke="#ffffff" stroke-width="1.7"/></g><g><path d="M2283.764 29.908l.001 38.637L2250.383 88 2217 68.817l.002-38.636 33.379-19.456 33.383 19.183z" fill="#ffffff" fill-rule="evenodd"/><path d="M2281.152 32.083l-.175 35.288-30.77 17.281-30.594-18.01.178-35.288 30.767-17.28 30.594 18.009z" fill="#045a9f" fill-rule="evenodd"/><path d="M2237 59.992l6.087 9.008L2268 59" fill="none" stroke="#ffffff" stroke-width="3" stroke-dasharray="0,37.716847509234256" stroke-dashoffset="37.716848" stroke-miterlimit="10"/><path d="M2253.115 26.356l3.058.951-8.478 27.261-3.058-.951z" fill="#ffffff"/><path d="M2237 30.937c-3.239 0-5.875 4.134-5.875 9.213 0 5.079 2.636 9.213 5.875 9.213s5.875-4.134 5.875-9.213c0-5.079-2.636-9.213-5.875-9.213zm0 1.536c2.709 0 4.896 3.429 4.896 7.677 0 4.249-2.187 7.677-4.896 7.677s-4.896-3.428-4.896-7.677c0-4.248 2.187-7.677 4.896-7.677z" fill="#ffffff" stroke="#ffffff" stroke-width="1.7"/></g><g><path d="M2383.764 29.908l.001 38.637L2350.383 88 2317 68.817l.002-38.636 33.379-19.456 33.383 19.183z" fill="#ffffff" fill-rule="evenodd"/><path d="M2381.152 32.083l-.175 35.288-30.77 17.281-30.594-18.01.178-35.288 30.767-17.28 30.594 18.009z" fill="#03599f" fill-rule="evenodd"/><path d="M2337 59.992l6.087 9.008L2368 59" fill="none" stroke="#ffffff" stroke-width="3" stroke-dasharray="0,37.716847509234256" stroke-dashoffset="37.716848" stroke-miterlimit="10"/><path d="M2353.115 26.356l3.058.951-8.478 27.261-3.058-.951z" fill="#ffffff"/><path d="M2337 30.937c-3.239 0-5.875 4.134-5.875 9.213 0 5.079 2.636 9.213 5.875 9.213s5.875-4.134 5.875-9.213c0-5.079-2.636-9.213-5.875-9.213zm0 1.536c2.709 0 4.896 3.429 4.896 7.677 0 4.249-2.187 7.677-4.896 7.677s-4.896-3.428-4.896-7.677c0-4.248 2.187-7.677 4.896-7.677z" fill="#ffffff" stroke="#ffffff" stroke-width="1.7"/></g><g><path d="M2483.764 29.908l.001 38.637L2450.383 88 2417 68.817l.002-38.636 33.379-19.456 33.383 19.183z" fill="#ffffff" fill-rule="evenodd"/><path d="M2481.152 32.083l-.175 35.288-30.77 17.281-30.594-18.01.178-35.288 30.767-17.28 30.594 18.009z" fill="#03599f" fill-rule="evenodd"/><path d="M2437 59.992l6.087 9.008L2468 59" fill="none" stroke="#ffffff" stroke-width="3" stroke-dasharray="0,37.716847509234256" stroke-dashoffset="37.716848" stroke-miterlimit="10"/><path d="M2453.115 26.356l3.058.951-8.478 27.261-3.058-.951z" fill="#ffffff"/><path d="M2437 30.937c-3.239 0-5.875 4.134-5.875 9.213 0 5.079 2.636 9.213 5.875 9.213s5.875-4.134 5.875-9.213c0-5.079-2.636-9.213-5.875-9.213zm0 1.536c2.709 0 4.896 3.429 4.896 7.677 0 4.249-2.187 7.677-4.896 7.677s-4.896-3.428-4.896-7.677c0-4.248 2.187-7.677 4.896-7.677z" fill="#ffffff" stroke="#ffffff" stroke-width="1.7"/></g><g><path d="M2583.764 29.908l.001 38.637L2550.383 88 2517 68.817l.002-38.636 33.379-19.456 33.383 19.183z" fill="#ffffff" fill-rule="evenodd"/><path d="M2581.152 32.083l-.175 35.288-30.77 17.281-30.594-18.01.178-35.288 30.767-17.28 30.594 18.009z" fill="#03599f" fill-rule="evenodd"/><path d="M2537 59.992l6.087 9.008L2568 59" fill="none" stroke="#ffffff" stroke-width="3" stroke-dasharray="0,37.716847509234256" stroke-dashoffset="37.716848" stroke-miterlimit="10"/><path d="M2553.115 26.356l3.058.951-8.478 27.261-3.058-.951z" fill="#ffffff"/><path d="M2537 30.937c-3.239 0-5.875 4.134-5.875 9.213 0 5.079 2.636 9.213 5.875 9.213s5.875-4.134 5.875-9.213c0-5.079-2.636-9.213-5.875-9.213zm0 1.536c2.709 0 4.896 3.429 4.896 7.677 0 4.249-2.187 7.677-4.896 7.677s-4.896-3.428-4.896-7.677c0-4.248 2.187-7.677 4.896-7.677z" fill="#ffffff" stroke="#ffffff" stroke-width="1.7"/></g><g><path d="M2683.764 29.908l.001 38.637L2650.383 88 2617 68.817l.002-38.636 33.379-19.456 33.383 19.183z" fill="#ffffff" fill-rule="evenodd"/><path d="M2681.152 32.083l-.175 35.288-30.77 17.281-30.594-18.01.178-35.288 30.767-17.28 30.594 18.009z" fill="#03599f" fill-rule="evenodd"/><path d="M2637 59.992l6.087 9.008L2668 59" fill="none" stroke="#ffffff" stroke-width="3" stroke-dasharray="0,37.716847509234256" stroke-dashoffset="37.716848" stroke-miterlimit="10"/><path d="M2653.115 26.356l3.058.951-8.478 27.261-3.058-.951z" fill="#ffffff"/><path d="M2637 30.937c-3.239 0-5.875 4.134-5.875 9.213 0 5.079 2.636 9.213 5.875 9.213s5.875-4.134 5.875-9.213c0-5.079-2.636-9.213-5.875-9.213zm0 1.536c2.709 0 4.896 3.429 4.896 7.677 0 4.249-2.187 7.677-4.896 7.677s-4.896-3.428-4.896-7.677c0-4.248 2.187-7.677 4.896-7.677z" fill="#ffffff" stroke="#ffffff" stroke-width="1.7"/></g><g><path d="M2783.764 29.908l.001 38.637L2750.383 88 2717 68.817l.002-38.636 33.379-19.456 33.383 19.183z" fill="#ffffff" fill-rule="evenodd"/><path d="M2781.152 32.083l-.175 35.288-30.77 17.281-30.594-18.01.178-35.288 30.767-17.28 30.594 18.009z" fill="#03599f" fill-rule="evenodd"/><path d="M2737 59.992l6.087 9.008L2768 59" fill="none" stroke="#ffffff" stroke-width="3" stroke-dasharray="0,37.716847509234256" stroke-dashoffset="37.716848" stroke-miterlimit="10"/><path d="M2753.115 26.356l3.058.951-8.478 27.261-3.058-.951z" fill="#ffffff"/><path d="M2737 30.937c-3.239 0-5.875 4.134-5.875 9.213 0 5.079 2.636 9.213 5.875 9.213s5.875-4.134 5.875-9.213c0-5.079-2.636-9.213-5.875-9.213zm0 1.536c2.709 0 4.896 3.429 4.896 7.677 0 4.249-2.187 7.677-4.896 7.677s-4.896-3.428-4.896-7.677c0-4.248 2.187-7.677 4.896-7.677z" fill="#ffffff" stroke="#ffffff" stroke-width="1.7"/></g><g><path d="M2883.764 29.908l.001 38.637L2850.383 88 2817 68.817l.002-38.636 33.379-19.456 33.383 19.183z" fill="#ffffff" fill-rule="evenodd"/><path d="M2881.152 32.083l-.175 35.288-30.77 17.281-30.594-18.01.178-35.288 30.767-17.28 30.594 18.009z" fill="#03599f" fill-rule="evenodd"/><path d="M2837 59.992l6.087 9.008L2868 59" fill="none" stroke="#ffffff" stroke-width="3" stroke-dasharray="0,37.716847509234256" stroke-dashoffset="37.716848" stroke-miterlimit="10"/><path d="M2853.115 26.356l3.058.951-8.478 27.261-3.058-.951z" fill="#ffffff"/><path d="M2837 30.937c-3.239 0-5.875 4.134-5.875 9.213 0 5.079 2.636 9.213 5.875 9.213s5.875-4.134 5.875-9.213c0-5.079-2.636-9.213-5.875-9.213zm0 1.536c2.709 0 4.896 3.429 4.896 7.677 0 4.249-2.187 7.677-4.896 7.677s-4.896-3.428-4.896-7.677c0-4.248 2.187-7.677 4.896-7.677z" fill="#ffffff" stroke="#ffffff" stroke-width="1.7"/></g><g><path d="M2983.764 29.908l.001 38.637L2950.383 88 2917 68.817l.002-38.636 33.379-19.456 33.383 19.183z" fill="#ffffff" fill-rule="evenodd"/><path d="M2981.152 32.083l-.175 35.288-30.77 17.281-30.594-18.01.178-35.288 30.767-17.28 30.594 18.009z" fill="#03599f" fill-rule="evenodd"/><path d="M2937 59.992l6.087 9.008L2968 59" fill="none" stroke="#ffffff" stroke-width="3" stroke-dasharray="0,37.716847509234256" stroke-dashoffset="37.716848" stroke-miterlimit="10"/><path d="M2953.115 26.356l3.058.951-8.478 27.261-3.058-.951z" fill="#ffffff"/><path d="M2937 30.937c-3.239 0-5.875 4.134-5.875 9.213 0 5.079 2.636 9.213 5.875 9.213s5.875-4.134 5.875-9.213c0-5.079-2.636-9.213-5.875-9.213zm0 1.536c2.709 0 4.896 3.429 4.896 7.677 0 4.249-2.187 7.677-4.896 7.677s-4.896-3.428-4.896-7.677c0-4.248 2.187-7.677 4.896-7.677z" fill="#ffffff" stroke="#ffffff" stroke-width="1.7"/></g><g><path d="M3083.764 29.908l.001 38.637L3050.383 88 3017 68.817l.002-38.636 33.379-19.456 33.383 19.183z" fill="#ffffff" fill-rule="evenodd"/><path d="M3081.152 32.083l-.175 35.288-30.77 17.281-30.594-18.01.178-35.288 30.767-17.28 30.594 18.009z" fill="#03599f" fill-rule="evenodd"/><path d="M3037 59.992l6.087 9.008L3068 59" fill="none" stroke="#ffffff" stroke-width="3" stroke-dasharray="0,37.716847509234256" stroke-dashoffset="37.716848" stroke-miterlimit="10"/><path d="M3053.115 26.356l3.058.951-8.478 27.261-3.058-.951z" fill="#ffffff"/><path d="M3037 30.937c-3.239 0-5.875 4.134-5.875 9.213 0 5.079 2.636 9.213 5.875 9.213s5.875-4.134 5.875-9.213c0-5.079-2.636-9.213-5.875-9.213zm0 1.536c2.709 0 4.896 3.429 4.896 7.677 0 4.249-2.187 7.677-4.896 7.677s-4.896-3.428-4.896-7.677c0-4.248 2.187-7.677 4.896-7.677z" fill="#ffffff" stroke="#ffffff" stroke-width="1.7"/></g><g><path d="M3183.764 29.908l.001 38.637L3150.383 88 3117 68.817l.002-38.636 33.379-19.456 33.383 19.183z" fill="#ffffff" fill-rule="evenodd"/><path d="M3181.152 32.083l-.175 35.288-30.77 17.281-30.594-18.01.178-35.288 30.767-17.28 30.594 18.009z" fill="#03599f" fill-rule="evenodd"/><path d="M3137 59.992l6.087 9.008L3168 59" fill="none" stroke="#ffffff" stroke-width="3" stroke-dasharray="0,37.716847509234256" stroke-dashoffset="37.716848" stroke-miterlimit="10"/><path d="M3153.115 26.356l3.058.951-8.478 27.261-3.058-.951z" fill="#ffffff"/><path d="M3137 30.937c-3.239 0-5.875 4.134-5.875 9.213 0 5.079 2.636 9.213 5.875 9.213s5.875-4.134 5.875-9.213c0-5.079-2.636-9.213-5.875-9.213zm0 1.536c2.709 0 4.896 3.429 4.896 7.677 0 4.249-2.187 7.677-4.896 7.677s-4.896-3.428-4.896-7.677c0-4.248 2.187-7.677 4.896-7.677z" fill="#ffffff" stroke="#ffffff" stroke-width="1.7"/><path d="M3166.5 30.937V50h-4.192V35.804s-1.897.81-4.058.81v-3.139c2.659-.582 4.677-1.541 5.708-2.538h2.542z" fill="#ffffff" fill-opacity=".000793"/></g><g><path d="M3283.764 29.908l.001 38.637L3250.383 88 3217 68.817l.002-38.636 33.379-19.456 33.383 19.183z" fill="#ffffff" fill-rule="evenodd"/><path d="M3281.152 32.083l-.175 35.288-30.77 17.281-30.594-18.01.178-35.288 30.767-17.28 30.594 18.009z" fill="#03599f" fill-rule="evenodd"/><path d="M3237 59.992l6.087 9.008L3268 59" fill="none" stroke="#ffffff" stroke-width="3" stroke-dasharray="0,37.716847509234256" stroke-dashoffset="37.716848" stroke-miterlimit="10"/><path d="M3253.115 26.356l3.058.951-8.478 27.261-3.058-.951z" fill="#ffffff"/><path d="M3237 30.937c-3.239 0-5.875 4.134-5.875 9.213 0 5.079 2.636 9.213 5.875 9.213s5.875-4.134 5.875-9.213c0-5.079-2.636-9.213-5.875-9.213zm0 1.536c2.709 0 4.896 3.429 4.896 7.677 0 4.249-2.187 7.677-4.896 7.677s-4.896-3.428-4.896-7.677c0-4.248 2.187-7.677 4.896-7.677z" fill="#ffffff" stroke="#ffffff" stroke-width="1.7"/><path d="M3266.5 30.937V50h-4.192V35.804s-1.897.81-4.058.81v-3.139c2.659-.582 4.677-1.541 5.708-2.538h2.542z" fill="#ffffff" fill-opacity=".006305"/></g><g><path d="M3383.764 29.908l.001 38.637L3350.383 88 3317 68.817l.002-38.636 33.379-19.456 33.383 19.183z" fill="#ffffff" fill-rule="evenodd"/><path d="M3381.152 32.083l-.175 35.288-30.77 17.281-30.594-18.01.178-35.288 30.767-17.28 30.594 18.009z" fill="#03599f" fill-rule="evenodd"/><path d="M3337 59.992l6.087 9.008L3368 59" fill="none" stroke="#ffffff" stroke-width="3" stroke-dasharray="0,37.716847509234256" stroke-dashoffset="37.716848" stroke-miterlimit="10"/><path d="M3353.115 26.356l3.058.951-8.478 27.261-3.058-.951z" fill="#ffffff"/><path d="M3337 30.937c-3.239 0-5.875 4.134-5.875 9.213 0 5.079 2.636 9.213 5.875 9.213s5.875-4.134 5.875-9.213c0-5.079-2.636-9.213-5.875-9.213zm0 1.536c2.709 0 4.896 3.429 4.896 7.677 0 4.249-2.187 7.677-4.896 7.677s-4.896-3.428-4.896-7.677c0-4.248 2.187-7.677 4.896-7.677z" fill="#ffffff" stroke="#ffffff" stroke-width="1.7"/><path d="M3366.5 30.937V50h-4.192V35.804s-1.897.81-4.058.81v-3.139c2.659-.582 4.677-1.541 5.708-2.538h2.542z" fill="#ffffff" fill-opacity=".018105"/></g><g><path d="M3483.764 29.908l.001 38.637L3450.383 88 3417 68.817l.002-38.636 33.379-19.456 33.383 19.183z" fill="#ffffff" fill-rule="evenodd"/><path d="M3481.152 32.083l-.175 35.288-30.77 17.281-30.594-18.01.178-35.288 30.767-17.28 30.594 18.009z" fill="#03599f" fill-rule="evenodd"/><path d="M3437 59.992l6.087 9.008L3468 59" fill="none" stroke="#ffffff" stroke-width="3" stroke-dasharray="0,37.716847509234256" stroke-dashoffset="37.716848" stroke-miterlimit="10"/><path d="M3453.115 26.356l3.058.951-8.478 27.261-3.058-.951z" fill="#ffffff"/><path d="M3437 30.937c-3.239 0-5.875 4.134-5.875 9.213 0 5.079 2.636 9.213 5.875 9.213s5.875-4.134 5.875-9.213c0-5.079-2.636-9.213-5.875-9.213zm0 1.536c2.709 0 4.896 3.429 4.896 7.677 0 4.249-2.187 7.677-4.896 7.677s-4.896-3.428-4.896-7.677c0-4.248 2.187-7.677 4.896-7.677z" fill="#ffffff" stroke="#ffffff" stroke-width="1.7"/><path d="M3466.5 30.937V50h-4.192V35.804s-1.897.81-4.058.81v-3.139c2.659-.582 4.677-1.541 5.708-2.538h2.542z" fill="#ffffff" fill-opacity=".037739"/></g><g><path d="M3583.764 29.908l.001 38.637L3550.383 88 3517 68.817l.002-38.636 33.379-19.456 33.383 19.183z" fill="#ffffff" fill-rule="evenodd"/><path d="M3581.152 32.083l-.175 35.288-30.77 17.281-30.594-18.01.178-35.288 30.767-17.28 30.594 18.009z" fill="#03599f" fill-rule="evenodd"/><path d="M3537 59.992l6.087 9.008L3568 59" fill="none" stroke="#ffffff" stroke-width="3" stroke-dasharray="0,37.716847509234256" stroke-dashoffset="37.716848" stroke-miterlimit="10"/><path d="M3553.115 26.356l3.058.951-8.478 27.261-3.058-.951z" fill="#ffffff"/><path d="M3537 30.937c-3.239 0-5.875 4.134-5.875 9.213 0 5.079 2.636 9.213 5.875 9.213s5.875-4.134 5.875-9.213c0-5.079-2.636-9.213-5.875-9.213zm0 1.536c2.709 0 4.896 3.429 4.896 7.677 0 4.249-2.187 7.677-4.896 7.677s-4.896-3.428-4.896-7.677c0-4.248 2.187-7.677 4.896-7.677z" fill="#ffffff" stroke="#ffffff" stroke-width="1.7"/><path d="M3566.5 30.937V50h-4.192V35.804s-1.897.81-4.058.81v-3.139c2.659-.582 4.677-1.541 5.708-2.538h2.542z" fill="#ffffff" fill-opacity=".067194"/></g><g><path d="M3683.764 29.908l.001 38.637L3650.383 88 3617 68.817l.002-38.636 33.379-19.456 33.383 19.183z" fill="#ffffff" fill-rule="evenodd"/><path d="M3681.152 32.083l-.175 35.288-30.77 17.281-30.594-18.01.178-35.288 30.767-17.28 30.594 18.009z" fill="#03599f" fill-rule="evenodd"/><path d="M3637 59.992l6.087 9.008L3668 59" fill="none" stroke="#ffffff" stroke-width="3" stroke-dasharray="0,37.716847509234256" stroke-dashoffset="37.716848" stroke-miterlimit="10"/><path d="M3653.115 26.356l3.058.951-8.478 27.261-3.058-.951z" fill="#ffffff"/><path d="M3637 30.937c-3.239 0-5.875 4.134-5.875 9.213 0 5.079 2.636 9.213 5.875 9.213s5.875-4.134 5.875-9.213c0-5.079-2.636-9.213-5.875-9.213zm0 1.536c2.709 0 4.896 3.429 4.896 7.677 0 4.249-2.187 7.677-4.896 7.677s-4.896-3.428-4.896-7.677c0-4.248 2.187-7.677 4.896-7.677z" fill="#ffffff" stroke="#ffffff" stroke-width="1.7"/><path d="M3666.5 30.937V50h-4.192V35.804s-1.897.81-4.058.81v-3.139c2.659-.582 4.677-1.541 5.708-2.538h2.542z" fill="#ffffff" fill-opacity=".108873"/></g><g><path d="M3783.764 29.908l.001 38.637L3750.383 88 3717 68.817l.002-38.636 33.379-19.456 33.383 19.183z" fill="#ffffff" fill-rule="evenodd"/><path d="M3781.152 32.083l-.175 35.288-30.77 17.281-30.594-18.01.178-35.288 30.767-17.28 30.594 18.009z" fill="#03599f" fill-rule="evenodd"/><path d="M3737 59.992l6.087 9.008L3768 59" fill="none" stroke="#ffffff" stroke-width="3" stroke-dasharray="0,37.716847509234256" stroke-dashoffset="37.716848" stroke-miterlimit="10"/><path d="M3753.115 26.356l3.058.951-8.478 27.261-3.058-.951z" fill="#ffffff"/><path d="M3737 30.937c-3.239 0-5.875 4.134-5.875 9.213 0 5.079 2.636 9.213 5.875 9.213s5.875-4.134 5.875-9.213c0-5.079-2.636-9.213-5.875-9.213zm0 1.536c2.709 0 4.896 3.429 4.896 7.677 0 4.249-2.187 7.677-4.896 7.677s-4.896-3.428-4.896-7.677c0-4.248 2.187-7.677 4.896-7.677z" fill="#ffffff" stroke="#ffffff" stroke-width="1.7"/><path d="M3766.5 30.937V50h-4.192V35.804s-1.897.81-4.058.81v-3.139c2.659-.582 4.677-1.541 5.708-2.538h2.542z" fill="#ffffff" fill-opacity=".165149"/></g><g><path d="M3883.764 29.908l.001 38.637L3850.383 88 3817 68.817l.002-38.636 33.379-19.456 33.383 19.183z" fill="#ffffff" fill-rule="evenodd"/><path d="M3881.152 32.083l-.175 35.288-30.77 17.281-30.594-18.01.178-35.288 30.767-17.28 30.594 18.009z" fill="#03599f" fill-rule="evenodd"/><path d="M3837 59.992l6.087 9.008L3868 59" fill="none" stroke="#ffffff" stroke-width="3" stroke-dasharray="0,37.716847509234256" stroke-dashoffset="37.716848" stroke-miterlimit="10"/><path d="M3853.115 26.356l3.058.951-8.478 27.261-3.058-.951z" fill="#ffffff"/><path d="M3837 30.937c-3.239 0-5.875 4.134-5.875 9.213 0 5.079 2.636 9.213 5.875 9.213s5.875-4.134 5.875-9.213c0-5.079-2.636-9.213-5.875-9.213zm0 1.536c2.709 0 4.896 3.429 4.896 7.677 0 4.249-2.187 7.677-4.896 7.677s-4.896-3.428-4.896-7.677c0-4.248 2.187-7.677 4.896-7.677z" fill="#ffffff" stroke="#ffffff" stroke-width="1.7"/><path d="M3866.5 30.937V50h-4.192V35.804s-1.897.81-4.058.81v-3.139c2.659-.582 4.677-1.541 5.708-2.538h2.542z" fill="#ffffff" fill-opacity=".236983"/></g><g><path d="M3983.764 29.908l.001 38.637L3950.383 88 3917 68.817l.002-38.636 33.379-19.456 33.383 19.183z" fill="#ffffff" fill-rule="evenodd"/><path d="M3981.152 32.083l-.175 35.288-30.77 17.281-30.594-18.01.178-35.288 30.767-17.28 30.594 18.009z" fill="#03599f" fill-rule="evenodd"/><path d="M3937 59.992l6.087 9.008L3968 59" fill="none" stroke="#ffffff" stroke-width="3" stroke-dasharray="0,37.716847509234256" stroke-dashoffset="37.716848" stroke-miterlimit="10"/><path d="M3953.115 26.356l3.058.951-8.478 27.261-3.058-.951z" fill="#ffffff"/><path d="M3937 30.937c-3.239 0-5.875 4.134-5.875 9.213 0 5.079 2.636 9.213 5.875 9.213s5.875-4.134 5.875-9.213c0-5.079-2.636-9.213-5.875-9.213zm0 1.536c2.709 0 4.896 3.429 4.896 7.677 0 4.249-2.187 7.677-4.896 7.677s-4.896-3.428-4.896-7.677c0-4.248 2.187-7.677 4.896-7.677z" fill="#ffffff" stroke="#ffffff" stroke-width="1.7"/><path d="M3966.5 30.937V50h-4.192V35.804s-1.897.81-4.058.81v-3.139c2.659-.582 4.677-1.541 5.708-2.538h2.542z" fill="#ffffff" fill-opacity=".321554"/></g><g><path d="M4083.764 29.908l.001 38.637L4050.383 88 4017 68.817l.002-38.636 33.379-19.456 33.383 19.183z" fill="#ffffff" fill-rule="evenodd"/><path d="M4081.152 32.083l-.175 35.288-30.77 17.281-30.594-18.01.178-35.288 30.767-17.28 30.594 18.009z" fill="#03599f" fill-rule="evenodd"/><path d="M4037 59.992l6.087 9.008L4068 59" fill="none" stroke="#ffffff" stroke-width="3" stroke-dasharray="0,37.716847509234256" stroke-dashoffset="37.716848" stroke-miterlimit="10"/><path d="M4053.115 26.356l3.058.951-8.478 27.261-3.058-.951z" fill="#ffffff"/><path d="M4037 30.937c-3.239 0-5.875 4.134-5.875 9.213 0 5.079 2.636 9.213 5.875 9.213s5.875-4.134 5.875-9.213c0-5.079-2.636-9.213-5.875-9.213zm0 1.536c2.709 0 4.896 3.429 4.896 7.677 0 4.249-2.187 7.677-4.896 7.677s-4.896-3.428-4.896-7.677c0-4.248 2.187-7.677 4.896-7.677z" fill="#ffffff" stroke="#ffffff" stroke-width="1.7"/><path d="M4066.5 30.937V50h-4.192V35.804s-1.897.81-4.058.81v-3.139c2.659-.582 4.677-1.541 5.708-2.538h2.542z" fill="#ffffff" fill-opacity=".4114"/></g><g><path d="M4183.764 29.908l.001 38.637L4150.383 88 4117 68.817l.002-38.636 33.379-19.456 33.383 19.183z" fill="#ffffff" fill-rule="evenodd"/><path d="M4181.152 32.083l-.175 35.288-30.77 17.281-30.594-18.01.178-35.288 30.767-17.28 30.594 18.009z" fill="#03599f" fill-rule="evenodd"/><path d="M4137 59.992l6.087 9.008L4168 59" fill="none" stroke="#ffffff" stroke-width="3" stroke-dasharray="0,37.716847509234256" stroke-dashoffset="37.716848" stroke-miterlimit="10"/><path d="M4153.115 26.356l3.058.951-8.478 27.261-3.058-.951z" fill="#ffffff"/><path d="M4137 30.937c-3.239 0-5.875 4.134-5.875 9.213 0 5.079 2.636 9.213 5.875 9.213s5.875-4.134 5.875-9.213c0-5.079-2.636-9.213-5.875-9.213zm0 1.536c2.709 0 4.896 3.429 4.896 7.677 0 4.249-2.187 7.677-4.896 7.677s-4.896-3.428-4.896-7.677c0-4.248 2.187-7.677 4.896-7.677z" fill="#ffffff" stroke="#ffffff" stroke-width="1.7"/><path d="M4166.5 30.937V50h-4.192V35.804s-1.897.81-4.058.81v-3.139c2.659-.582 4.677-1.541 5.708-2.538h2.542z" fill="#ffffff" fill-opacity=".497934"/></g><g><path d="M4283.764 29.908l.001 38.637L4250.383 88 4217 68.817l.002-38.636 33.379-19.456 33.383 19.183z" fill="#ffffff" fill-rule="evenodd"/><path d="M4281.152 32.083l-.175 35.288-30.77 17.281-30.594-18.01.178-35.288 30.767-17.28 30.594 18.009z" fill="#03599f" fill-rule="evenodd"/><path d="M4237 59.992l6.087 9.008L4268 59" fill="none" stroke="#ffffff" stroke-width="3" stroke-dasharray="0,37.716847509234256" stroke-dashoffset="37.716848" stroke-miterlimit="10"/><path d="M4253.115 26.356l3.058.951-8.478 27.261-3.058-.951z" fill="#ffffff"/><path d="M4237 30.937c-3.239 0-5.875 4.134-5.875 9.213 0 5.079 2.636 9.213 5.875 9.213s5.875-4.134 5.875-9.213c0-5.079-2.636-9.213-5.875-9.213zm0 1.536c2.709 0 4.896 3.429 4.896 7.677 0 4.249-2.187 7.677-4.896 7.677s-4.896-3.428-4.896-7.677c0-4.248 2.187-7.677 4.896-7.677z" fill="#ffffff" stroke="#ffffff" stroke-width="1.7"/><path d="M4266.5 30.937V50h-4.192V35.804s-1.897.81-4.058.81v-3.139c2.659-.582 4.677-1.541 5.708-2.538h2.542z" fill="#ffffff" fill-opacity=".575806"/></g><g><path d="M4383.764 29.908l.001 38.637L4350.383 88 4317 68.817l.002-38.636 33.379-19.456 33.383 19.183z" fill="#ffffff" fill-rule="evenodd"/><path d="M4381.152 32.083l-.175 35.288-30.77 17.281-30.594-18.01.178-35.288 30.767-17.28 30.594 18.009z" fill="#03599f" fill-rule="evenodd"/><path d="M4337 59.992l6.087 9.008L4368 59" fill="none" stroke="#ffffff" stroke-width="3" stroke-dasharray="0,37.716847509234256" stroke-dashoffset="37.716848" stroke-miterlimit="10"/><path d="M4353.115 26.356l3.058.951-8.478 27.261-3.058-.951z" fill="#ffffff"/><path d="M4337 30.937c-3.239 0-5.875 4.134-5.875 9.213 0 5.079 2.636 9.213 5.875 9.213s5.875-4.134 5.875-9.213c0-5.079-2.636-9.213-5.875-9.213zm0 1.536c2.709 0 4.896 3.429 4.896 7.677 0 4.249-2.187 7.677-4.896 7.677s-4.896-3.428-4.896-7.677c0-4.248 2.187-7.677 4.896-7.677z" fill="#ffffff" stroke="#ffffff" stroke-width="1.7"/><path d="M4366.5 30.937V50h-4.192V35.804s-1.897.81-4.058.81v-3.139c2.659-.582 4.677-1.541 5.708-2.538h2.542z" fill="#ffffff" fill-opacity=".643439"/></g><g><path d="M4483.764 29.908l.001 38.637L4450.383 88 4417 68.817l.002-38.636 33.379-19.456 33.383 19.183z" fill="#ffffff" fill-rule="evenodd"/><path d="M4481.152 32.083l-.175 35.288-30.77 17.281-30.594-18.01.178-35.288 30.767-17.28 30.594 18.009z" fill="#03599f" fill-rule="evenodd"/><path d="M4437 59.992l6.087 9.008L4468 59" fill="none" stroke="#ffffff" stroke-width="3" stroke-dasharray="0,37.716847509234256" stroke-dashoffset="37.716848" stroke-miterlimit="10"/><path d="M4453.115 26.356l3.058.951-8.478 27.261-3.058-.951z" fill="#ffffff"/><path d="M4437 30.937c-3.239 0-5.875 4.134-5.875 9.213 0 5.079 2.636 9.213 5.875 9.213s5.875-4.134 5.875-9.213c0-5.079-2.636-9.213-5.875-9.213zm0 1.536c2.709 0 4.896 3.429 4.896 7.677 0 4.249-2.187 7.677-4.896 7.677s-4.896-3.428-4.896-7.677c0-4.248 2.187-7.677 4.896-7.677z" fill="#ffffff" stroke="#ffffff" stroke-width="1.7"/><path d="M4466.5 30.937V50h-4.192V35.804s-1.897.81-4.058.81v-3.139c2.659-.582 4.677-1.541 5.708-2.538h2.542z" fill="#ffffff" fill-opacity=".701345"/></g><g><path d="M4583.764 29.908l.001 38.637L4550.383 88 4517 68.817l.002-38.636 33.379-19.456 33.383 19.183z" fill="#ffffff" fill-rule="evenodd"/><path d="M4581.152 32.083l-.175 35.288-30.77 17.281-30.594-18.01.178-35.288 30.767-17.28 30.594 18.009z" fill="#03599f" fill-rule="evenodd"/><path d="M4537 59.992l6.087 9.008L4568 59" fill="none" stroke="#ffffff" stroke-width="3" stroke-dasharray="0,37.716847509234256" stroke-dashoffset="37.716848" stroke-miterlimit="10"/><path d="M4553.115 26.356l3.058.951-8.478 27.261-3.058-.951z" fill="#ffffff"/><path d="M4537 30.937c-3.239 0-5.875 4.134-5.875 9.213 0 5.079 2.636 9.213 5.875 9.213s5.875-4.134 5.875-9.213c0-5.079-2.636-9.213-5.875-9.213zm0 1.536c2.709 0 4.896 3.429 4.896 7.677 0 4.249-2.187 7.677-4.896 7.677s-4.896-3.428-4.896-7.677c0-4.248 2.187-7.677 4.896-7.677z" fill="#ffffff" stroke="#ffffff" stroke-width="1.7"/><path d="M4566.5 30.937V50h-4.192V35.804s-1.897.81-4.058.81v-3.139c2.659-.582 4.677-1.541 5.708-2.538h2.542z" fill="#ffffff" fill-opacity=".750731"/></g><g><path d="M4683.764 29.908l.001 38.637L4650.383 88 4617 68.817l.002-38.636 33.379-19.456 33.383 19.183z" fill="#ffffff" fill-rule="evenodd"/><path d="M4681.152 32.083l-.175 35.288-30.77 17.281-30.594-18.01.178-35.288 30.767-17.28 30.594 18.009z" fill="#03599f" fill-rule="evenodd"/><path d="M4637 59.992l6.087 9.008L4668 59" fill="none" stroke="#ffffff" stroke-width="3" stroke-dasharray="0,37.716847509234256" stroke-dashoffset="37.716848" stroke-miterlimit="10"/><path d="M4653.115 26.356l3.058.951-8.478 27.261-3.058-.951z" fill="#ffffff"/><path d="M4637 30.937c-3.239 0-5.875 4.134-5.875 9.213 0 5.079 2.636 9.213 5.875 9.213s5.875-4.134 5.875-9.213c0-5.079-2.636-9.213-5.875-9.213zm0 1.536c2.709 0 4.896 3.429 4.896 7.677 0 4.249-2.187 7.677-4.896 7.677s-4.896-3.428-4.896-7.677c0-4.248 2.187-7.677 4.896-7.677z" fill="#ffffff" stroke="#ffffff" stroke-width="1.7"/><path d="M4666.5 30.937V50h-4.192V35.804s-1.897.81-4.058.81v-3.139c2.659-.582 4.677-1.541 5.708-2.538h2.542z" fill="#ffffff" fill-opacity=".792867"/></g><g><path d="M4783.764 29.908l.001 38.637L4750.383 88 4717 68.817l.002-38.636 33.379-19.456 33.383 19.183z" fill="#ffffff" fill-rule="evenodd"/><path d="M4781.152 32.083l-.175 35.288-30.77 17.281-30.594-18.01.178-35.288 30.767-17.28 30.594 18.009z" fill="#03599f" fill-rule="evenodd"/><path d="M4737 59.992l6.087 9.008L4768 59" fill="none" stroke="#ffffff" stroke-width="3" stroke-dasharray="0,37.716847509234256" stroke-dashoffset="37.716848" stroke-miterlimit="10"/><path d="M4753.115 26.356l3.058.951-8.478 27.261-3.058-.951z" fill="#ffffff"/><path d="M4737 30.937c-3.239 0-5.875 4.134-5.875 9.213 0 5.079 2.636 9.213 5.875 9.213s5.875-4.134 5.875-9.213c0-5.079-2.636-9.213-5.875-9.213zm0 1.536c2.709 0 4.896 3.429 4.896 7.677 0 4.249-2.187 7.677-4.896 7.677s-4.896-3.428-4.896-7.677c0-4.248 2.187-7.677 4.896-7.677z" fill="#ffffff" stroke="#ffffff" stroke-width="1.7"/><path d="M4766.5 30.937V50h-4.192V35.804s-1.897.81-4.058.81v-3.139c2.659-.582 4.677-1.541 5.708-2.538h2.542z" fill="#ffffff" fill-opacity=".82887"/></g><g><path d="M4883.764 29.908l.001 38.637L4850.383 88 4817 68.817l.002-38.636 33.379-19.456 33.383 19.183z" fill="#ffffff" fill-rule="evenodd"/><path d="M4881.152 32.083l-.175 35.288-30.77 17.281-30.594-18.01.178-35.288 30.767-17.28 30.594 18.009z" fill="#03599f" fill-rule="evenodd"/><path d="M4837 59.992l6.087 9.008L4868 59" fill="none" stroke="#ffffff" stroke-width="3" stroke-dasharray="0,37.716847509234256" stroke-dashoffset="37.716848" stroke-miterlimit="10"/><path d="M4853.115 26.356l3.058.951-8.478 27.261-3.058-.951z" fill="#ffffff"/><path d="M4837 30.937c-3.239 0-5.875 4.134-5.875 9.213 0 5.079 2.636 9.213 5.875 9.213s5.875-4.134 5.875-9.213c0-5.079-2.636-9.213-5.875-9.213zm0 1.536c2.709 0 4.896 3.429 4.896 7.677 0 4.249-2.187 7.677-4.896 7.677s-4.896-3.428-4.896-7.677c0-4.248 2.187-7.677 4.896-7.677z" fill="#ffffff" stroke="#ffffff" stroke-width="1.7"/><path d="M4866.5 30.937V50h-4.192V35.804s-1.897.81-4.058.81v-3.139c2.659-.582 4.677-1.541 5.708-2.538h2.542z" fill="#ffffff" fill-opacity=".859667"/></g><g><path d="M4983.764 29.908l.001 38.637L4950.383 88 4917 68.817l.002-38.636 33.379-19.456 33.383 19.183z" fill="#ffffff" fill-rule="evenodd"/><path d="M4981.152 32.083l-.175 35.288-30.77 17.281-30.594-18.01.178-35.288 30.767-17.28 30.594 18.009z" fill="#03599f" fill-rule="evenodd"/><path d="M4937 59.992l6.087 9.008L4968 59" fill="none" stroke="#ffffff" stroke-width="3" stroke-dasharray="0,37.716847509234256" stroke-dashoffset="37.716848" stroke-miterlimit="10"/><path d="M4953.115 26.356l3.058.951-8.478 27.261-3.058-.951z" fill="#ffffff"/><path d="M4937 30.937c-3.239 0-5.875 4.134-5.875 9.213 0 5.079 2.636 9.213 5.875 9.213s5.875-4.134 5.875-9.213c0-5.079-2.636-9.213-5.875-9.213zm0 1.536c2.709 0 4.896 3.429 4.896 7.677 0 4.249-2.187 7.677-4.896 7.677s-4.896-3.428-4.896-7.677c0-4.248 2.187-7.677 4.896-7.677z" fill="#ffffff" stroke="#ffffff" stroke-width="1.7"/><path d="M4966.5 30.937V50h-4.192V35.804s-1.897.81-4.058.81v-3.139c2.659-.582 4.677-1.541 5.708-2.538h2.542z" fill="#ffffff" fill-opacity=".886015"/></g><g><path d="M5083.764 29.908l.001 38.637L5050.383 88 5017 68.817l.002-38.636 33.379-19.456 33.383 19.183z" fill="#ffffff" fill-rule="evenodd"/><path d="M5081.152 32.083l-.175 35.288-30.77 17.281-30.594-18.01.178-35.288 30.767-17.28 30.594 18.009z" fill="#03599f" fill-rule="evenodd"/><path d="M5037 59.992l6.087 9.008L5068 59" fill="none" stroke="#ffffff" stroke-width="3" stroke-dasharray="0,37.716847509234256" stroke-dashoffset="37.716848" stroke-miterlimit="10"/><path d="M5053.115 26.356l3.058.951-8.478 27.261-3.058-.951z" fill="#ffffff"/><path d="M5037 30.937c-3.239 0-5.875 4.134-5.875 9.213 0 5.079 2.636 9.213 5.875 9.213s5.875-4.134 5.875-9.213c0-5.079-2.636-9.213-5.875-9.213zm0 1.536c2.709 0 4.896 3.429 4.896 7.677 0 4.249-2.187 7.677-4.896 7.677s-4.896-3.428-4.896-7.677c0-4.248 2.187-7.677 4.896-7.677z" fill="#ffffff" stroke="#ffffff" stroke-width="1.7"/><path d="M5066.5 30.937V50h-4.192V35.804s-1.897.81-4.058.81v-3.139c2.659-.582 4.677-1.541 5.708-2.538h2.542z" fill="#ffffff" fill-opacity=".908524"/></g><g><path d="M5183.764 29.908l.001 38.637L5150.383 88 5117 68.817l.002-38.636 33.379-19.456 33.383 19.183z" fill="#ffffff" fill-rule="evenodd"/><path d="M5181.152 32.083l-.175 35.288-30.77 17.281-30.594-18.01.178-35.288 30.767-17.28 30.594 18.009z" fill="#03599f" fill-rule="evenodd"/><path d="M5137 59.992l6.087 9.008L5168 59" fill="none" stroke="#ffffff" stroke-width="3" stroke-dasharray="0,37.716847509234256" stroke-dashoffset="37.716848" stroke-miterlimit="10"/><path d="M5153.115 26.356l3.058.951-8.478 27.261-3.058-.951z" fill="#ffffff"/><path d="M5137 30.937c-3.239 0-5.875 4.134-5.875 9.213 0 5.079 2.636 9.213 5.875 9.213s5.875-4.134 5.875-9.213c0-5.079-2.636-9.213-5.875-9.213zm0 1.536c2.709 0 4.896 3.429 4.896 7.677 0 4.249-2.187 7.677-4.896 7.677s-4.896-3.428-4.896-7.677c0-4.248 2.187-7.677 4.896-7.677z" fill="#ffffff" stroke="#ffffff" stroke-width="1.7"/><path d="M5166.5 30.937V50h-4.192V35.804s-1.897.81-4.058.81v-3.139c2.659-.582 4.677-1.541 5.708-2.538h2.542z" fill="#ffffff" fill-opacity=".927695"/></g><g><path d="M5283.764 29.908l.001 38.637L5250.383 88 5217 68.817l.002-38.636 33.379-19.456 33.383 19.183z" fill="#ffffff" fill-rule="evenodd"/><path d="M5281.152 32.083l-.175 35.288-30.77 17.281-30.594-18.01.178-35.288 30.767-17.28 30.594 18.009z" fill="#03599f" fill-rule="evenodd"/><path d="M5237 59.992l6.087 9.008L5268 59" fill="none" stroke="#ffffff" stroke-width="3" stroke-dasharray="0,37.716847509234256" stroke-dashoffset="37.716848" stroke-miterlimit="10"/><path d="M5253.115 26.356l3.058.951-8.478 27.261-3.058-.951z" fill="#ffffff"/><path d="M5237 30.937c-3.239 0-5.875 4.134-5.875 9.213 0 5.079 2.636 9.213 5.875 9.213s5.875-4.134 5.875-9.213c0-5.079-2.636-9.213-5.875-9.213zm0 1.536c2.709 0 4.896 3.429 4.896 7.677 0 4.249-2.187 7.677-4.896 7.677s-4.896-3.428-4.896-7.677c0-4.248 2.187-7.677 4.896-7.677z" fill="#ffffff" stroke="#ffffff" stroke-width="1.7"/><path d="M5266.5 30.937V50h-4.192V35.804s-1.897.81-4.058.81v-3.139c2.659-.582 4.677-1.541 5.708-2.538h2.542z" fill="#ffffff" fill-opacity=".943936"/></g><g><path d="M5383.764 29.908l.001 38.637L5350.383 88 5317 68.817l.002-38.636 33.379-19.456 33.383 19.183z" fill="#ffffff" fill-rule="evenodd"/><path d="M5381.152 32.083l-.175 35.288-30.77 17.281-30.594-18.01.178-35.288 30.767-17.28 30.594 18.009z" fill="#03599f" fill-rule="evenodd"/><path d="M5337 59.992l6.087 9.008L5368 59" fill="none" stroke="#ffffff" stroke-width="3" stroke-dasharray="0,37.716847509234256" stroke-dashoffset="37.716848" stroke-miterlimit="10"/><path d="M5353.115 26.356l3.058.951-8.478 27.261-3.058-.951z" fill="#ffffff"/><path d="M5337 30.937c-3.239 0-5.875 4.134-5.875 9.213 0 5.079 2.636 9.213 5.875 9.213s5.875-4.134 5.875-9.213c0-5.079-2.636-9.213-5.875-9.213zm0 1.536c2.709 0 4.896 3.429 4.896 7.677 0 4.249-2.187 7.677-4.896 7.677s-4.896-3.428-4.896-7.677c0-4.248 2.187-7.677 4.896-7.677z" fill="#ffffff" stroke="#ffffff" stroke-width="1.7"/><path d="M5366.5 30.937V50h-4.192V35.804s-1.897.81-4.058.81v-3.139c2.659-.582 4.677-1.541 5.708-2.538h2.542z" fill="#ffffff" fill-opacity=".957586"/></g><g><path d="M5483.764 29.908l.001 38.637L5450.383 88 5417 68.817l.002-38.636 33.379-19.456 33.383 19.183z" fill="#ffffff" fill-rule="evenodd"/><path d="M5481.152 32.083l-.175 35.288-30.77 17.281-30.594-18.01.178-35.288 30.767-17.28 30.594 18.009z" fill="#03599f" fill-rule="evenodd"/><path d="M5437 59.992l6.087 9.008L5468 59" fill="none" stroke="#ffffff" stroke-width="3" stroke-dasharray="0,37.716847509234256" stroke-dashoffset="37.716848" stroke-miterlimit="10"/><path d="M5453.115 26.356l3.058.951-8.478 27.261-3.058-.951z" fill="#ffffff"/><path d="M5437 30.937c-3.239 0-5.875 4.134-5.875 9.213 0 5.079 2.636 9.213 5.875 9.213s5.875-4.134 5.875-9.213c0-5.079-2.636-9.213-5.875-9.213zm0 1.536c2.709 0 4.896 3.429 4.896 7.677 0 4.249-2.187 7.677-4.896 7.677s-4.896-3.428-4.896-7.677c0-4.248 2.187-7.677 4.896-7.677z" fill="#ffffff" stroke="#ffffff" stroke-width="1.7"/><path d="M5466.5 30.937V50h-4.192V35.804s-1.897.81-4.058.81v-3.139c2.659-.582 4.677-1.541 5.708-2.538h2.542z" fill="#ffffff" fill-opacity=".968928"/></g><g><path d="M5583.764 29.908l.001 38.637L5550.383 88 5517 68.817l.002-38.636 33.379-19.456 33.383 19.183z" fill="#ffffff" fill-rule="evenodd"/><path d="M5581.152 32.083l-.175 35.288-30.77 17.281-30.594-18.01.178-35.288 30.767-17.28 30.594 18.009z" fill="#03599f" fill-rule="evenodd"/><path d="M5537 59.992l6.087 9.008L5568 59" fill="none" stroke="#ffffff" stroke-width="3" stroke-dasharray="0,37.716847509234256" stroke-dashoffset="37.716848" stroke-miterlimit="10"/><path d="M5553.115 26.356l3.058.951-8.478 27.261-3.058-.951z" fill="#ffffff"/><path d="M5537 30.937c-3.239 0-5.875 4.134-5.875 9.213 0 5.079 2.636 9.213 5.875 9.213s5.875-4.134 5.875-9.213c0-5.079-2.636-9.213-5.875-9.213zm0 1.536c2.709 0 4.896 3.429 4.896 7.677 0 4.249-2.187 7.677-4.896 7.677s-4.896-3.428-4.896-7.677c0-4.248 2.187-7.677 4.896-7.677z" fill="#ffffff" stroke="#ffffff" stroke-width="1.7"/><path d="M5566.5 30.937V50h-4.192V35.804s-1.897.81-4.058.81v-3.139c2.659-.582 4.677-1.541 5.708-2.538h2.542z" fill="#ffffff" fill-opacity=".978201"/></g><g><path d="M5683.764 29.908l.001 38.637L5650.383 88 5617 68.817l.002-38.636 33.379-19.456 33.383 19.183z" fill="#ffffff" fill-rule="evenodd"/><path d="M5681.152 32.083l-.175 35.288-30.77 17.281-30.594-18.01.178-35.288 30.767-17.28 30.594 18.009z" fill="#03599f" fill-rule="evenodd"/><path d="M5637 59.992l6.087 9.008L5668 59" fill="none" stroke="#ffffff" stroke-width="3" stroke-dasharray="0,37.716847509234256" stroke-dashoffset="37.716848" stroke-miterlimit="10"/><path d="M5653.115 26.356l3.058.951-8.478 27.261-3.058-.951z" fill="#ffffff"/><path d="M5637 30.937c-3.239 0-5.875 4.134-5.875 9.213 0 5.079 2.636 9.213 5.875 9.213s5.875-4.134 5.875-9.213c0-5.079-2.636-9.213-5.875-9.213zm0 1.536c2.709 0 4.896 3.429 4.896 7.677 0 4.249-2.187 7.677-4.896 7.677s-4.896-3.428-4.896-7.677c0-4.248 2.187-7.677 4.896-7.677z" fill="#ffffff" stroke="#ffffff" stroke-width="1.7"/><path d="M5666.5 30.937V50h-4.192V35.804s-1.897.81-4.058.81v-3.139c2.659-.582 4.677-1.541 5.708-2.538h2.542z" fill="#ffffff" fill-opacity=".985607"/></g><g><path d="M5783.764 29.908l.001 38.637L5750.383 88 5717 68.817l.002-38.636 33.379-19.456 33.383 19.183z" fill="#ffffff" fill-rule="evenodd"/><path d="M5781.152 32.083l-.175 35.288-30.77 17.281-30.594-18.01.178-35.288 30.767-17.28 30.594 18.009z" fill="#03599f" fill-rule="evenodd"/><path d="M5737 59.992l6.087 9.008L5768 59" fill="none" stroke="#ffffff" stroke-width="3" stroke-dasharray="0,37.716847509234256" stroke-dashoffset="37.716848" stroke-miterlimit="10"/><path d="M5753.115 26.356l3.058.951-8.478 27.261-3.058-.951z" fill="#ffffff"/><path d="M5737 30.937c-3.239 0-5.875 4.134-5.875 9.213 0 5.079 2.636 9.213 5.875 9.213s5.875-4.134 5.875-9.213c0-5.079-2.636-9.213-5.875-9.213zm0 1.536c2.709 0 4.896 3.429 4.896 7.677 0 4.249-2.187 7.677-4.896 7.677s-4.896-3.428-4.896-7.677c0-4.248 2.187-7.677 4.896-7.677z" fill="#ffffff" stroke="#ffffff" stroke-width="1.7"/><path d="M5766.5 30.937V50h-4.192V35.804s-1.897.81-4.058.81v-3.139c2.659-.582 4.677-1.541 5.708-2.538h2.542z" fill="#ffffff" fill-opacity=".99132"/></g><g><path d="M5883.764 29.908l.001 38.637L5850.383 88 5817 68.817l.002-38.636 33.379-19.456 33.383 19.183z" fill="#ffffff" fill-rule="evenodd"/><path d="M5881.152 32.083l-.175 35.288-30.77 17.281-30.594-18.01.178-35.288 30.767-17.28 30.594 18.009z" fill="#03599f" fill-rule="evenodd"/><path d="M5837 59.992l6.087 9.008L5868 59" fill="none" stroke="#ffffff" stroke-width="3" stroke-dasharray="0,37.716847509234256" stroke-dashoffset="37.716848" stroke-miterlimit="10"/><path d="M5853.115 26.356l3.058.951-8.478 27.261-3.058-.951z" fill="#ffffff"/><path d="M5837 30.937c-3.239 0-5.875 4.134-5.875 9.213 0 5.079 2.636 9.213 5.875 9.213s5.875-4.134 5.875-9.213c0-5.079-2.636-9.213-5.875-9.213zm0 1.536c2.709 0 4.896 3.429 4.896 7.677 0 4.249-2.187 7.677-4.896 7.677s-4.896-3.428-4.896-7.677c0-4.248 2.187-7.677 4.896-7.677z" fill="#ffffff" stroke="#ffffff" stroke-width="1.7"/><path d="M5866.5 30.937V50h-4.192V35.804s-1.897.81-4.058.81v-3.139c2.659-.582 4.677-1.541 5.708-2.538h2.542z" fill="#ffffff" fill-opacity=".995489"/></g><g><path d="M5983.764 29.908l.001 38.637L5950.383 88 5917 68.817l.002-38.636 33.379-19.456 33.383 19.183z" fill="#ffffff" fill-rule="evenodd"/><path d="M5981.152 32.083l-.175 35.288-30.77 17.281-30.594-18.01.178-35.288 30.767-17.28 30.594 18.009z" fill="#03599f" fill-rule="evenodd"/><path d="M5937 59.992l6.087 9.008L5968 59" fill="none" stroke="#ffffff" stroke-width="3" stroke-dasharray="0,37.716847509234256" stroke-dashoffset="37.716848" stroke-miterlimit="10"/><path d="M5953.115 26.356l3.058.951-8.478 27.261-3.058-.951z" fill="#ffffff"/><path d="M5937 30.937c-3.239 0-5.875 4.134-5.875 9.213 0 5.079 2.636 9.213 5.875 9.213s5.875-4.134 5.875-9.213c0-5.079-2.636-9.213-5.875-9.213zm0 1.536c2.709 0 4.896 3.429 4.896 7.677 0 4.249-2.187 7.677-4.896 7.677s-4.896-3.428-4.896-7.677c0-4.248 2.187-7.677 4.896-7.677z" fill="#ffffff" stroke="#ffffff" stroke-width="1.7"/><path d="M5966.5 30.937V50h-4.192V35.804s-1.897.81-4.058.81v-3.139c2.659-.582 4.677-1.541 5.708-2.538h2.542z" fill="#ffffff" fill-opacity=".998245"/></g><g><path d="M6083.764 29.908l.001 38.637L6050.383 88 6017 68.817l.002-38.636 33.379-19.456 33.383 19.183z" fill="#ffffff" fill-rule="evenodd"/><path d="M6081.152 32.083l-.175 35.288-30.77 17.281-30.594-18.01.178-35.288 30.767-17.28 30.594 18.009z" fill="#03599f" fill-rule="evenodd"/><path d="M6037 59.992l6.087 9.008L6068 59" fill="none" stroke="#ffffff" stroke-width="3" stroke-dasharray="0,37.716847509234256" stroke-dashoffset="37.716848" stroke-miterlimit="10"/><path d="M6053.115 26.356l3.058.951-8.478 27.261-3.058-.951z" fill="#ffffff"/><path d="M6037 30.937c-3.239 0-5.875 4.134-5.875 9.213 0 5.079 2.636 9.213 5.875 9.213s5.875-4.134 5.875-9.213c0-5.079-2.636-9.213-5.875-9.213zm0 1.536c2.709 0 4.896 3.429 4.896 7.677 0 4.249-2.187 7.677-4.896 7.677s-4.896-3.428-4.896-7.677c0-4.248 2.187-7.677 4.896-7.677z" fill="#ffffff" stroke="#ffffff" stroke-width="1.7"/><path d="M6066.5 30.937V50h-4.192V35.804s-1.897.81-4.058.81v-3.139c2.659-.582 4.677-1.541 5.708-2.538h2.542z" fill="#ffffff" fill-opacity=".9997"/></g><g><path d="M6183.764 29.908l.001 38.637L6150.383 88 6117 68.817l.002-38.636 33.379-19.456 33.383 19.183z" fill="#ffffff" fill-rule="evenodd"/><path d="M6181.152 32.083l-.175 35.288-30.77 17.281-30.594-18.01.178-35.288 30.767-17.28 30.594 18.009z" fill="#03599f" fill-rule="evenodd"/><path d="M6137 59.992l6.087 9.008L6168 59" fill="none" stroke="#ffffff" stroke-width="3" stroke-dasharray="0,37.716847509234256" stroke-dashoffset="37.716848" stroke-miterlimit="10"/><path d="M6153.115 26.356l3.058.951-8.478 27.261-3.058-.951z" fill="#ffffff"/><path d="M6137 30.937c-3.239 0-5.875 4.134-5.875 9.213 0 5.079 2.636 9.213 5.875 9.213s5.875-4.134 5.875-9.213c0-5.079-2.636-9.213-5.875-9.213zm0 1.536c2.709 0 4.896 3.429 4.896 7.677 0 4.249-2.187 7.677-4.896 7.677s-4.896-3.428-4.896-7.677c0-4.248 2.187-7.677 4.896-7.677z" fill="#ffffff" stroke="#ffffff" stroke-width="1.7"/><path d="M6166.5 30.937V50h-4.192V35.804s-1.897.81-4.058.81v-3.139c2.659-.582 4.677-1.541 5.708-2.538h2.542z" fill="#ffffff"/></g><g><path d="M6283.764 29.908l.001 38.637L6250.383 88 6217 68.817l.002-38.636 33.379-19.456 33.383 19.183z" fill="#ffffff" fill-rule="evenodd"/><path d="M6281.152 32.083l-.175 35.288-30.77 17.281-30.594-18.01.178-35.288 30.767-17.28 30.594 18.009z" fill="#03599f" fill-rule="evenodd"/><path d="M6237 59.992l6.087 9.008L6268 59" fill="none" stroke="#ffffff" stroke-width="3" stroke-dasharray="0,37.716847509234256" stroke-dashoffset="37.716848" stroke-miterlimit="10"/><path d="M6253.115 26.356l3.058.951-8.478 27.261-3.058-.951z" fill="#ffffff"/><path d="M6237 30.937c-3.239 0-5.875 4.134-5.875 9.213 0 5.079 2.636 9.213 5.875 9.213s5.875-4.134 5.875-9.213c0-5.079-2.636-9.213-5.875-9.213zm0 1.536c2.709 0 4.896 3.429 4.896 7.677 0 4.249-2.187 7.677-4.896 7.677s-4.896-3.428-4.896-7.677c0-4.248 2.187-7.677 4.896-7.677z" fill="#ffffff" stroke="#ffffff" stroke-width="1.7"/><path d="M6266.5 30.937V50h-4.192V35.804s-1.897.81-4.058.81v-3.139c2.659-.582 4.677-1.541 5.708-2.538h2.542z" fill="#ffffff"/></g><g><path d="M6383.764 29.908l.001 38.637L6350.383 88 6317 68.817l.002-38.636 33.379-19.456 33.383 19.183z" fill="#ffffff" fill-rule="evenodd"/><path d="M6381.152 32.083l-.175 35.288-30.77 17.281-30.594-18.01.178-35.288 30.767-17.28 30.594 18.009z" fill="#03599f" fill-rule="evenodd"/><path d="M6337 59.992l6.087 9.008L6368 59" fill="none" stroke="#ffffff" stroke-width="3" stroke-dasharray="0,37.716847509234256" stroke-dashoffset="37.716848" stroke-miterlimit="10"/><path d="M6353.115 26.356l3.058.951-8.478 27.261-3.058-.951z" fill="#ffffff"/><path d="M6337 30.937c-3.239 0-5.875 4.134-5.875 9.213 0 5.079 2.636 9.213 5.875 9.213s5.875-4.134 5.875-9.213c0-5.079-2.636-9.213-5.875-9.213zm0 1.536c2.709 0 4.896 3.429 4.896 7.677 0 4.249-2.187 7.677-4.896 7.677s-4.896-3.428-4.896-7.677c0-4.248 2.187-7.677 4.896-7.677z" fill="#ffffff" stroke="#ffffff" stroke-width="1.7"/><path d="M6366.5 30.937V50h-4.192V35.804s-1.897.81-4.058.81v-3.139c2.659-.582 4.677-1.541 5.708-2.538h2.542z" fill="#ffffff"/></g><g><path d="M6483.764 29.908l.001 38.637L6450.383 88 6417 68.817l.002-38.636 33.379-19.456 33.383 19.183z" fill="#ffffff" fill-rule="evenodd"/><path d="M6481.152 32.083l-.175 35.288-30.77 17.281-30.594-18.01.178-35.288 30.767-17.28 30.594 18.009z" fill="#03599f" fill-rule="evenodd"/><path d="M6437 59.992l6.087 9.008L6468 59" fill="none" stroke="#ffffff" stroke-width="3" stroke-dasharray="0,37.716847509234256" stroke-dashoffset="37.716848" stroke-miterlimit="10"/><path d="M6453.115 26.356l3.058.951-8.478 27.261-3.058-.951z" fill="#ffffff"/><path d="M6437 30.937c-3.239 0-5.875 4.134-5.875 9.213 0 5.079 2.636 9.213 5.875 9.213s5.875-4.134 5.875-9.213c0-5.079-2.636-9.213-5.875-9.213zm0 1.536c2.709 0 4.896 3.429 4.896 7.677 0 4.249-2.187 7.677-4.896 7.677s-4.896-3.428-4.896-7.677c0-4.248 2.187-7.677 4.896-7.677z" fill="#ffffff" stroke="#ffffff" stroke-width="1.7"/><path d="M6466.5 30.937V50h-4.192V35.804s-1.897.81-4.058.81v-3.139c2.659-.582 4.677-1.541 5.708-2.538h2.542z" fill="#ffffff"/></g><g><path d="M6583.764 29.908l.001 38.637L6550.383 88 6517 68.817l.002-38.636 33.379-19.456 33.383 19.183z" fill="#ffffff" fill-rule="evenodd"/><path d="M6581.152 32.083l-.175 35.288-30.77 17.281-30.594-18.01.178-35.288 30.767-17.28 30.594 18.009z" fill="#03599f" fill-rule="evenodd"/><path d="M6537 59.992l6.087 9.008L6568 59" fill="none" stroke="#ffffff" stroke-width="3" stroke-dasharray="0,37.716847509234256" stroke-dashoffset="37.716848" stroke-miterlimit="10"/><path d="M6553.115 26.356l3.058.951-8.478 27.261-3.058-.951z" fill="#ffffff"/><path d="M6537 30.937c-3.239 0-5.875 4.134-5.875 9.213 0 5.079 2.636 9.213 5.875 9.213s5.875-4.134 5.875-9.213c0-5.079-2.636-9.213-5.875-9.213zm0 1.536c2.709 0 4.896 3.429 4.896 7.677 0 4.249-2.187 7.677-4.896 7.677s-4.896-3.428-4.896-7.677c0-4.248 2.187-7.677 4.896-7.677z" fill="#ffffff" stroke="#ffffff" stroke-width="1.7"/><path d="M6566.5 30.937V50h-4.192V35.804s-1.897.81-4.058.81v-3.139c2.659-.582 4.677-1.541 5.708-2.538h2.542z" fill="#ffffff"/></g><g><path d="M6683.764 29.908l.001 38.637L6650.383 88 6617 68.817l.002-38.636 33.379-19.456 33.383 19.183z" fill="#ffffff" fill-rule="evenodd"/><path d="M6681.152 32.083l-.175 35.288-30.77 17.281-30.594-18.01.178-35.288 30.767-17.28 30.594 18.009z" fill="#03599f" fill-rule="evenodd"/><path d="M6637 59.992l6.087 9.008L6668 59" fill="none" stroke="#ffffff" stroke-width="3" stroke-dasharray="0,37.716847509234256" stroke-dashoffset="37.716848" stroke-miterlimit="10"/><path d="M6653.115 26.356l3.058.951-8.478 27.261-3.058-.951z" fill="#ffffff"/><path d="M6637 30.937c-3.239 0-5.875 4.134-5.875 9.213 0 5.079 2.636 9.213 5.875 9.213s5.875-4.134 5.875-9.213c0-5.079-2.636-9.213-5.875-9.213zm0 1.536c2.709 0 4.896 3.429 4.896 7.677 0 4.249-2.187 7.677-4.896 7.677s-4.896-3.428-4.896-7.677c0-4.248 2.187-7.677 4.896-7.677z" fill="#ffffff" stroke="#ffffff" stroke-width="1.7"/><path d="M6666.5 30.937V50h-4.192V35.804s-1.897.81-4.058.81v-3.139c2.659-.582 4.677-1.541 5.708-2.538h2.542z" fill="#ffffff"/></g><g><path d="M6783.764 29.908l.001 38.637L6750.383 88 6717 68.817l.002-38.636 33.379-19.456 33.383 19.183z" fill="#ffffff" fill-rule="evenodd"/><path d="M6781.152 32.083l-.175 35.288-30.77 17.281-30.594-18.01.178-35.288 30.767-17.28 30.594 18.009z" fill="#03599f" fill-rule="evenodd"/><path d="M6737 59.992l6.087 9.008L6768 59" fill="none" stroke="#ffffff" stroke-width="3" stroke-dasharray="0,37.716847509234256" stroke-dashoffset="37.716848" stroke-miterlimit="10"/><path d="M6753.115 26.356l3.058.951-8.478 27.261-3.058-.951z" fill="#ffffff"/><path d="M6737 30.937c-3.239 0-5.875 4.134-5.875 9.213 0 5.079 2.636 9.213 5.875 9.213s5.875-4.134 5.875-9.213c0-5.079-2.636-9.213-5.875-9.213zm0 1.536c2.709 0 4.896 3.429 4.896 7.677 0 4.249-2.187 7.677-4.896 7.677s-4.896-3.428-4.896-7.677c0-4.248 2.187-7.677 4.896-7.677z" fill="#ffffff" stroke="#ffffff" stroke-width="1.7"/><path d="M6766.5 30.937V50h-4.192V35.804s-1.897.81-4.058.81v-3.139c2.659-.582 4.677-1.541 5.708-2.538h2.542z" fill="#ffffff"/></g><g><path d="M6883.764 29.908l.001 38.637L6850.383 88 6817 68.817l.002-38.636 33.379-19.456 33.383 19.183z" fill="#ffffff" fill-rule="evenodd"/><path d="M6881.152 32.083l-.175 35.288-30.77 17.281-30.594-18.01.178-35.288 30.767-17.28 30.594 18.009z" fill="#03599f" fill-rule="evenodd"/><path d="M6837 59.992l6.087 9.008L6868 59" fill="none" stroke="#ffffff" stroke-width="3" stroke-dasharray="0,37.716847509234256" stroke-dashoffset="37.716848" stroke-miterlimit="10"/><path d="M6853.115 26.356l3.058.951-8.478 27.261-3.058-.951z" fill="#ffffff"/><path d="M6837 30.937c-3.239 0-5.875 4.134-5.875 9.213 0 5.079 2.636 9.213 5.875 9.213s5.875-4.134 5.875-9.213c0-5.079-2.636-9.213-5.875-9.213zm0 1.536c2.709 0 4.896 3.429 4.896 7.677 0 4.249-2.187 7.677-4.896 7.677s-4.896-3.428-4.896-7.677c0-4.248 2.187-7.677 4.896-7.677z" fill="#ffffff" stroke="#ffffff" stroke-width="1.7"/><path d="M6866.5 30.937V50h-4.192V35.804s-1.897.81-4.058.81v-3.139c2.659-.582 4.677-1.541 5.708-2.538h2.542z" fill="#ffffff"/></g><g><path d="M6983.764 29.908l.001 38.637L6950.383 88 6917 68.817l.002-38.636 33.379-19.456 33.383 19.183z" fill="#ffffff" fill-rule="evenodd"/><path d="M6981.152 32.083l-.175 35.288-30.77 17.281-30.594-18.01.178-35.288 30.767-17.28 30.594 18.009z" fill="#03599f" fill-rule="evenodd"/><path d="M6937 59.992l6.087 9.008L6968 59" fill="none" stroke="#ffffff" stroke-width="3" stroke-dasharray="0,37.716847509234256" stroke-dashoffset="37.716848" stroke-miterlimit="10"/><path d="M6953.115 26.356l3.058.951-8.478 27.261-3.058-.951z" fill="#ffffff"/><path d="M6937 30.937c-3.239 0-5.875 4.134-5.875 9.213 0 5.079 2.636 9.213 5.875 9.213s5.875-4.134 5.875-9.213c0-5.079-2.636-9.213-5.875-9.213zm0 1.536c2.709 0 4.896 3.429 4.896 7.677 0 4.249-2.187 7.677-4.896 7.677s-4.896-3.428-4.896-7.677c0-4.248 2.187-7.677 4.896-7.677z" fill="#ffffff" stroke="#ffffff" stroke-width="1.7"/><path d="M6966.5 30.937V50h-4.192V35.804s-1.897.81-4.058.81v-3.139c2.659-.582 4.677-1.541 5.708-2.538h2.542z" fill="#ffffff"/></g><g><path d="M7083.764 29.908l.001 38.637L7050.383 88 7017 68.817l.002-38.636 33.379-19.456 33.383 19.183z" fill="#ffffff" fill-rule="evenodd"/><path d="M7081.152 32.083l-.175 35.288-30.77 17.281-30.594-18.01.178-35.288 30.767-17.28 30.594 18.009z" fill="#03599f" fill-rule="evenodd"/><path d="M7037 59.992l6.087 9.008L7068 59" fill="none" stroke="#ffffff" stroke-width="3" stroke-dasharray="0,37.716847509234256" stroke-dashoffset="37.716848" stroke-miterlimit="10"/><path d="M7053.115 26.356l3.058.951-8.478 27.261-3.058-.951z" fill="#ffffff"/><path d="M7037 30.937c-3.239 0-5.875 4.134-5.875 9.213 0 5.079 2.636 9.213 5.875 9.213s5.875-4.134 5.875-9.213c0-5.079-2.636-9.213-5.875-9.213zm0 1.536c2.709 0 4.896 3.429 4.896 7.677 0 4.249-2.187 7.677-4.896 7.677s-4.896-3.428-4.896-7.677c0-4.248 2.187-7.677 4.896-7.677z" fill="#ffffff" stroke="#ffffff" stroke-width="1.7"/><path d="M7066.5 30.937V50h-4.192V35.804s-1.897.81-4.058.81v-3.139c2.659-.582 4.677-1.541 5.708-2.538h2.542z" fill="#ffffff"/></g><g><path d="M7183.764 29.908l.001 38.637L7150.383 88 7117 68.817l.002-38.636 33.379-19.456 33.383 19.183z" fill="#ffffff" fill-rule="evenodd"/><path d="M7181.152 32.083l-.175 35.288-30.77 17.281-30.594-18.01.178-35.288 30.767-17.28 30.594 18.009z" fill="#03599f" fill-rule="evenodd"/><path d="M7137 59.992l6.087 9.008L7168 59" fill="none" stroke="#ffffff" stroke-width="3" stroke-dasharray="0.06867163267308075,37.648175876561176" stroke-dashoffset="37.716848" stroke-miterlimit="10"/><path d="M7153.115 26.356l3.058.951-8.478 27.261-3.058-.951z" fill="#ffffff"/><path d="M7137 30.937c-3.239 0-5.875 4.134-5.875 9.213 0 5.079 2.636 9.213 5.875 9.213s5.875-4.134 5.875-9.213c0-5.079-2.636-9.213-5.875-9.213zm0 1.536c2.709 0 4.896 3.429 4.896 7.677 0 4.249-2.187 7.677-4.896 7.677s-4.896-3.428-4.896-7.677c0-4.248 2.187-7.677 4.896-7.677z" fill="#ffffff" stroke="#ffffff" stroke-width="1.7"/><path d="M7166.5 30.937V50h-4.192V35.804s-1.897.81-4.058.81v-3.139c2.659-.582 4.677-1.541 5.708-2.538h2.542z" fill="#ffffff"/></g><g><path d="M7283.764 29.908l.001 38.637L7250.383 88 7217 68.817l.002-38.636 33.379-19.456 33.383 19.183z" fill="#ffffff" fill-rule="evenodd"/><path d="M7281.152 32.083l-.175 35.288-30.77 17.281-30.594-18.01.178-35.288 30.767-17.28 30.594 18.009z" fill="#03599f" fill-rule="evenodd"/><path d="M7237 59.992l6.087 9.008L7268 59" fill="none" stroke="#ffffff" stroke-width="3" stroke-dasharray="0.34500272522842684,37.37184478400583" stroke-dashoffset="37.716848" stroke-miterlimit="10"/><path d="M7253.115 26.356l3.058.951-8.478 27.261-3.058-.951z" fill="#ffffff"/><path d="M7237 30.937c-3.239 0-5.875 4.134-5.875 9.213 0 5.079 2.636 9.213 5.875 9.213s5.875-4.134 5.875-9.213c0-5.079-2.636-9.213-5.875-9.213zm0 1.536c2.709 0 4.896 3.429 4.896 7.677 0 4.249-2.187 7.677-4.896 7.677s-4.896-3.428-4.896-7.677c0-4.248 2.187-7.677 4.896-7.677z" fill="#ffffff" stroke="#ffffff" stroke-width="1.7"/><path d="M7266.5 30.937V50h-4.192V35.804s-1.897.81-4.058.81v-3.139c2.659-.582 4.677-1.541 5.708-2.538h2.542z" fill="#ffffff"/></g><g><path d="M7383.764 29.908l.001 38.637L7350.383 88 7317 68.817l.002-38.636 33.379-19.456 33.383 19.183z" fill="#ffffff" fill-rule="evenodd"/><path d="M7381.152 32.083l-.175 35.288-30.77 17.281-30.594-18.01.178-35.288 30.767-17.28 30.594 18.009z" fill="#03599f" fill-rule="evenodd"/><path d="M7337 59.992l6.087 9.008L7368 59" fill="none" stroke="#ffffff" stroke-width="3" stroke-dasharray="0.8806572344871652,36.83619027474709" stroke-dashoffset="37.716848" stroke-miterlimit="10"/><path d="M7353.115 26.356l3.058.951-8.478 27.261-3.058-.951z" fill="#ffffff"/><path d="M7337 30.937c-3.239 0-5.875 4.134-5.875 9.213 0 5.079 2.636 9.213 5.875 9.213s5.875-4.134 5.875-9.213c0-5.079-2.636-9.213-5.875-9.213zm0 1.536c2.709 0 4.896 3.429 4.896 7.677 0 4.249-2.187 7.677-4.896 7.677s-4.896-3.428-4.896-7.677c0-4.248 2.187-7.677 4.896-7.677z" fill="#ffffff" stroke="#ffffff" stroke-width="1.7"/><path d="M7366.5 30.937V50h-4.192V35.804s-1.897.81-4.058.81v-3.139c2.659-.582 4.677-1.541 5.708-2.538h2.542z" fill="#ffffff"/></g><g><path d="M7483.764 29.908l.001 38.637L7450.383 88 7417 68.817l.002-38.636 33.379-19.456 33.383 19.183z" fill="#ffffff" fill-rule="evenodd"/><path d="M7481.152 32.083l-.175 35.288-30.77 17.281-30.594-18.01.178-35.288 30.767-17.28 30.594 18.009z" fill="#03599f" fill-rule="evenodd"/><path d="M7437 59.992l6.087 9.008L7468 59" fill="none" stroke="#ffffff" stroke-width="3" stroke-dasharray="1.7411490138758563,35.9756984953584" stroke-dashoffset="37.716848" stroke-miterlimit="10"/><path d="M7453.115 26.356l3.058.951-8.478 27.261-3.058-.951z" fill="#ffffff"/><path d="M7437 30.937c-3.239 0-5.875 4.134-5.875 9.213 0 5.079 2.636 9.213 5.875 9.213s5.875-4.134 5.875-9.213c0-5.079-2.636-9.213-5.875-9.213zm0 1.536c2.709 0 4.896 3.429 4.896 7.677 0 4.249-2.187 7.677-4.896 7.677s-4.896-3.428-4.896-7.677c0-4.248 2.187-7.677 4.896-7.677z" fill="#ffffff" stroke="#ffffff" stroke-width="1.7"/><path d="M7466.5 30.937V50h-4.192V35.804s-1.897.81-4.058.81v-3.139c2.659-.582 4.677-1.541 5.708-2.538h2.542z" fill="#ffffff"/></g><g><path d="M7583.764 29.908l.001 38.637L7550.383 88 7517 68.817l.002-38.636 33.379-19.456 33.383 19.183z" fill="#ffffff" fill-rule="evenodd"/><path d="M7581.152 32.083l-.175 35.288-30.77 17.281-30.594-18.01.178-35.288 30.767-17.28 30.594 18.009z" fill="#03599f" fill-rule="evenodd"/><path d="M7537 59.992l6.087 9.008L7568 59" fill="none" stroke="#ffffff" stroke-width="3" stroke-dasharray="3.0099662829560576,34.7068812262782" stroke-dashoffset="37.716848" stroke-miterlimit="10"/><path d="M7553.115 26.356l3.058.951-8.478 27.261-3.058-.951z" fill="#ffffff"/><path d="M7537 30.937c-3.239 0-5.875 4.134-5.875 9.213 0 5.079 2.636 9.213 5.875 9.213s5.875-4.134 5.875-9.213c0-5.079-2.636-9.213-5.875-9.213zm0 1.536c2.709 0 4.896 3.429 4.896 7.677 0 4.249-2.187 7.677-4.896 7.677s-4.896-3.428-4.896-7.677c0-4.248 2.187-7.677 4.896-7.677z" fill="#ffffff" stroke="#ffffff" stroke-width="1.7"/><path d="M7566.5 30.937V50h-4.192V35.804s-1.897.81-4.058.81v-3.139c2.659-.582 4.677-1.541 5.708-2.538h2.542z" fill="#ffffff"/></g><g><path d="M7683.764 29.908l.001 38.637L7650.383 88 7617 68.817l.002-38.636 33.379-19.456 33.383 19.183z" fill="#ffffff" fill-rule="evenodd"/><path d="M7681.152 32.083l-.175 35.288-30.77 17.281-30.594-18.01.178-35.288 30.767-17.28 30.594 18.009z" fill="#03599f" fill-rule="evenodd"/><path d="M7637 59.992l6.087 9.008L7668 59" fill="none" stroke="#ffffff" stroke-width="3" stroke-dasharray="4.783783055132865,32.93306445410139" stroke-dashoffset="37.716848" stroke-miterlimit="10"/><path d="M7653.115 26.356l3.058.951-8.478 27.261-3.058-.951z" fill="#ffffff"/><path d="M7637 30.937c-3.239 0-5.875 4.134-5.875 9.213 0 5.079 2.636 9.213 5.875 9.213s5.875-4.134 5.875-9.213c0-5.079-2.636-9.213-5.875-9.213zm0 1.536c2.709 0 4.896 3.429 4.896 7.677 0 4.249-2.187 7.677-4.896 7.677s-4.896-3.428-4.896-7.677c0-4.248 2.187-7.677 4.896-7.677z" fill="#ffffff" stroke="#ffffff" stroke-width="1.7"/><path d="M7666.5 30.937V50h-4.192V35.804s-1.897.81-4.058.81v-3.139c2.659-.582 4.677-1.541 5.708-2.538h2.542z" fill="#ffffff"/></g><g><path d="M7783.764 29.908l.001 38.637L7750.383 88 7717 68.817l.002-38.636 33.379-19.456 33.383 19.183z" fill="#ffffff" fill-rule="evenodd"/><path d="M7781.152 32.083l-.175 35.288-30.77 17.281-30.594-18.01.178-35.288 30.767-17.28 30.594 18.009z" fill="#03599f" fill-rule="evenodd"/><path d="M7737 59.992l6.087 9.008L7768 59" fill="none" stroke="#ffffff" stroke-width="3" stroke-dasharray="7.144783782592346,30.57206372664191" stroke-dashoffset="37.716848" stroke-miterlimit="10"/><path d="M7753.115 26.356l3.058.951-8.478 27.261-3.058-.951z" fill="#ffffff"/><path d="M7737 30.937c-3.239 0-5.875 4.134-5.875 9.213 0 5.079 2.636 9.213 5.875 9.213s5.875-4.134 5.875-9.213c0-5.079-2.636-9.213-5.875-9.213zm0 1.536c2.709 0 4.896 3.429 4.896 7.677 0 4.249-2.187 7.677-4.896 7.677s-4.896-3.428-4.896-7.677c0-4.248 2.187-7.677 4.896-7.677z" fill="#ffffff" stroke="#ffffff" stroke-width="1.7"/><path d="M7766.5 30.937V50h-4.192V35.804s-1.897.81-4.058.81v-3.139c2.659-.582 4.677-1.541 5.708-2.538h2.542z" fill="#ffffff"/></g><g><path d="M7883.764 29.908l.001 38.637L7850.383 88 7817 68.817l.002-38.636 33.379-19.456 33.383 19.183z" fill="#ffffff" fill-rule="evenodd"/><path d="M7881.152 32.083l-.175 35.288-30.77 17.281-30.594-18.01.178-35.288 30.767-17.28 30.594 18.009z" fill="#03599f" fill-rule="evenodd"/><path d="M7837 59.992l6.087 9.008L7868 59" fill="none" stroke="#ffffff" stroke-width="3" stroke-dasharray="10.088458617224642,27.628388892009614" stroke-dashoffset="37.716848" stroke-miterlimit="10"/><path d="M7853.115 26.356l3.058.951-8.478 27.261-3.058-.951z" fill="#ffffff"/><path d="M7837 30.937c-3.239 0-5.875 4.134-5.875 9.213 0 5.079 2.636 9.213 5.875 9.213s5.875-4.134 5.875-9.213c0-5.079-2.636-9.213-5.875-9.213zm0 1.536c2.709 0 4.896 3.429 4.896 7.677 0 4.249-2.187 7.677-4.896 7.677s-4.896-3.428-4.896-7.677c0-4.248 2.187-7.677 4.896-7.677z" fill="#ffffff" stroke="#ffffff" stroke-width="1.7"/><path d="M7866.5 30.937V50h-4.192V35.804s-1.897.81-4.058.81v-3.139c2.659-.582 4.677-1.541 5.708-2.538h2.542z" fill="#ffffff"/></g><g><path d="M7983.764 29.908l.001 38.637L7950.383 88 7917 68.817l.002-38.636 33.379-19.456 33.383 19.183z" fill="#ffffff" fill-rule="evenodd"/><path d="M7981.152 32.083l-.175 35.288-30.77 17.281-30.594-18.01.178-35.288 30.767-17.28 30.594 18.009z" fill="#03599f" fill-rule="evenodd"/><path d="M7937 59.992l6.087 9.008L7968 59" fill="none" stroke="#ffffff" stroke-width="3" stroke-dasharray="13.433296957267103,24.283550551967153" stroke-dashoffset="37.716848" stroke-miterlimit="10"/><path d="M7953.115 26.356l3.058.951-8.478 27.261-3.058-.951z" fill="#ffffff"/><path d="M7937 30.937c-3.239 0-5.875 4.134-5.875 9.213 0 5.079 2.636 9.213 5.875 9.213s5.875-4.134 5.875-9.213c0-5.079-2.636-9.213-5.875-9.213zm0 1.536c2.709 0 4.896 3.429 4.896 7.677 0 4.249-2.187 7.677-4.896 7.677s-4.896-3.428-4.896-7.677c0-4.248 2.187-7.677 4.896-7.677z" fill="#ffffff" stroke="#ffffff" stroke-width="1.7"/><path d="M7966.5 30.937V50h-4.192V35.804s-1.897.81-4.058.81v-3.139c2.659-.582 4.677-1.541 5.708-2.538h2.542z" fill="#ffffff"/></g><g><path d="M8083.764 29.908l.001 38.637L8050.383 88 8017 68.817l.002-38.636 33.379-19.456 33.383 19.183z" fill="#ffffff" fill-rule="evenodd"/><path d="M8081.152 32.083l-.175 35.288-30.77 17.281-30.594-18.01.178-35.288 30.767-17.28 30.594 18.009z" fill="#03599f" fill-rule="evenodd"/><path d="M8037 59.992l6.087 9.008L8068 59" fill="none" stroke="#ffffff" stroke-width="3" stroke-dasharray="16.84745677527982,20.86939073395444" stroke-dashoffset="37.716848" stroke-miterlimit="10"/><path d="M8053.115 26.356l3.058.951-8.478 27.261-3.058-.951z" fill="#ffffff"/><path d="M8037 30.937c-3.239 0-5.875 4.134-5.875 9.213 0 5.079 2.636 9.213 5.875 9.213s5.875-4.134 5.875-9.213c0-5.079-2.636-9.213-5.875-9.213zm0 1.536c2.709 0 4.896 3.429 4.896 7.677 0 4.249-2.187 7.677-4.896 7.677s-4.896-3.428-4.896-7.677c0-4.248 2.187-7.677 4.896-7.677z" fill="#ffffff" stroke="#ffffff" stroke-width="1.7"/><path d="M8066.5 30.937V50h-4.192V35.804s-1.897.81-4.058.81v-3.139c2.659-.582 4.677-1.541 5.708-2.538h2.542z" fill="#ffffff"/></g><g><path d="M8183.764 29.908l.001 38.637L8150.383 88 8117 68.817l.002-38.636 33.379-19.456 33.383 19.183z" fill="#ffffff" fill-rule="evenodd"/><path d="M8181.152 32.083l-.175 35.288-30.77 17.281-30.594-18.01.178-35.288 30.767-17.28 30.594 18.009z" fill="#03599f" fill-rule="evenodd"/><path d="M8137 59.992l6.087 9.008L8168 59" fill="none" stroke="#ffffff" stroke-width="3" stroke-dasharray="20.031940608318266,17.68490690091599" stroke-dashoffset="37.716848" stroke-miterlimit="10"/><path d="M8153.115 26.356l3.058.951-8.478 27.261-3.058-.951z" fill="#ffffff"/><path d="M8137 30.937c-3.239 0-5.875 4.134-5.875 9.213 0 5.079 2.636 9.213 5.875 9.213s5.875-4.134 5.875-9.213c0-5.079-2.636-9.213-5.875-9.213zm0 1.536c2.709 0 4.896 3.429 4.896 7.677 0 4.249-2.187 7.677-4.896 7.677s-4.896-3.428-4.896-7.677c0-4.248 2.187-7.677 4.896-7.677z" fill="#ffffff" stroke="#ffffff" stroke-width="1.7"/><path d="M8166.5 30.937V50h-4.192V35.804s-1.897.81-4.058.81v-3.139c2.659-.582 4.677-1.541 5.708-2.538h2.542z" fill="#ffffff"/></g><g><path d="M8283.764 29.908l.001 38.637L8250.383 88 8217 68.817l.002-38.636 33.379-19.456 33.383 19.183z" fill="#ffffff" fill-rule="evenodd"/><path d="M8281.152 32.083l-.175 35.288-30.77 17.281-30.594-18.01.178-35.288 30.767-17.28 30.594 18.009z" fill="#03599f" fill-rule="evenodd"/><path d="M8237 59.992l6.087 9.008L8268 59" fill="none" stroke="#ffffff" stroke-width="3" stroke-dasharray="22.842667790328562,14.874179718905694" stroke-dashoffset="37.716848" stroke-miterlimit="10"/><path d="M8253.115 26.356l3.058.951-8.478 27.261-3.058-.951z" fill="#ffffff"/><path d="M8237 30.937c-3.239 0-5.875 4.134-5.875 9.213 0 5.079 2.636 9.213 5.875 9.213s5.875-4.134 5.875-9.213c0-5.079-2.636-9.213-5.875-9.213zm0 1.536c2.709 0 4.896 3.429 4.896 7.677 0 4.249-2.187 7.677-4.896 7.677s-4.896-3.428-4.896-7.677c0-4.248 2.187-7.677 4.896-7.677z" fill="#ffffff" stroke="#ffffff" stroke-width="1.7"/><path d="M8266.5 30.937V50h-4.192V35.804s-1.897.81-4.058.81v-3.139c2.659-.582 4.677-1.541 5.708-2.538h2.542z" fill="#ffffff"/></g><g><path d="M8383.764 29.908l.001 38.637L8350.383 88 8317 68.817l.002-38.636 33.379-19.456 33.383 19.183z" fill="#ffffff" fill-rule="evenodd"/><path d="M8381.152 32.083l-.175 35.288-30.77 17.281-30.594-18.01.178-35.288 30.767-17.28 30.594 18.009z" fill="#03599f" fill-rule="evenodd"/><path d="M8337 59.992l6.087 9.008L8368 59" fill="none" stroke="#ffffff" stroke-width="3" stroke-dasharray="25.260368162442486,12.456479346791768" stroke-dashoffset="37.716848" stroke-miterlimit="10"/><path d="M8353.115 26.356l3.058.951-8.478 27.261-3.058-.951z" fill="#ffffff"/><path d="M8337 30.937c-3.239 0-5.875 4.134-5.875 9.213 0 5.079 2.636 9.213 5.875 9.213s5.875-4.134 5.875-9.213c0-5.079-2.636-9.213-5.875-9.213zm0 1.536c2.709 0 4.896 3.429 4.896 7.677 0 4.249-2.187 7.677-4.896 7.677s-4.896-3.428-4.896-7.677c0-4.248 2.187-7.677 4.896-7.677z" fill="#ffffff" stroke="#ffffff" stroke-width="1.7"/><path d="M8366.5 30.937V50h-4.192V35.804s-1.897.81-4.058.81v-3.139c2.659-.582 4.677-1.541 5.708-2.538h2.542z" fill="#ffffff"/></g><g><path d="M8483.764 29.908l.001 38.637L8450.383 88 8417 68.817l.002-38.636 33.379-19.456 33.383 19.183z" fill="#ffffff" fill-rule="evenodd"/><path d="M8481.152 32.083l-.175 35.288-30.77 17.281-30.594-18.01.178-35.288 30.767-17.28 30.594 18.009z" fill="#03599f" fill-rule="evenodd"/><path d="M8437 59.992l6.087 9.008L8468 59" fill="none" stroke="#ffffff" stroke-width="3" stroke-dasharray="27.321276406871533,10.395571102362723" stroke-dashoffset="37.716848" stroke-miterlimit="10"/><path d="M8453.115 26.356l3.058.951-8.478 27.261-3.058-.951z" fill="#ffffff"/><path d="M8437 30.937c-3.239 0-5.875 4.134-5.875 9.213 0 5.079 2.636 9.213 5.875 9.213s5.875-4.134 5.875-9.213c0-5.079-2.636-9.213-5.875-9.213zm0 1.536c2.709 0 4.896 3.429 4.896 7.677 0 4.249-2.187 7.677-4.896 7.677s-4.896-3.428-4.896-7.677c0-4.248 2.187-7.677 4.896-7.677z" fill="#ffffff" stroke="#ffffff" stroke-width="1.7"/><path d="M8466.5 30.937V50h-4.192V35.804s-1.897.81-4.058.81v-3.139c2.659-.582 4.677-1.541 5.708-2.538h2.542z" fill="#ffffff"/></g><g><path d="M8583.764 29.908l.001 38.637L8550.383 88 8517 68.817l.002-38.636 33.379-19.456 33.383 19.183z" fill="#ffffff" fill-rule="evenodd"/><path d="M8581.152 32.083l-.175 35.288-30.77 17.281-30.594-18.01.178-35.288 30.767-17.28 30.594 18.009z" fill="#03599f" fill-rule="evenodd"/><path d="M8537 59.992l6.087 9.008L8568 59" fill="none" stroke="#ffffff" stroke-width="3" stroke-dasharray="29.075404584334628,8.64144292489963" stroke-dashoffset="37.716848" stroke-miterlimit="10"/><path d="M8553.115 26.356l3.058.951-8.478 27.261-3.058-.951z" fill="#ffffff"/><path d="M8537 30.937c-3.239 0-5.875 4.134-5.875 9.213 0 5.079 2.636 9.213 5.875 9.213s5.875-4.134 5.875-9.213c0-5.079-2.636-9.213-5.875-9.213zm0 1.536c2.709 0 4.896 3.429 4.896 7.677 0 4.249-2.187 7.677-4.896 7.677s-4.896-3.428-4.896-7.677c0-4.248 2.187-7.677 4.896-7.677z" fill="#ffffff" stroke="#ffffff" stroke-width="1.7"/><path d="M8566.5 30.937V50h-4.192V35.804s-1.897.81-4.058.81v-3.139c2.659-.582 4.677-1.541 5.708-2.538h2.542z" fill="#ffffff"/></g><g><path d="M8683.764 29.908l.001 38.637L8650.383 88 8617 68.817l.002-38.636 33.379-19.456 33.383 19.183z" fill="#ffffff" fill-rule="evenodd"/><path d="M8681.152 32.083l-.175 35.288-30.77 17.281-30.594-18.01.178-35.288 30.767-17.28 30.594 18.009z" fill="#03599f" fill-rule="evenodd"/><path d="M8637 59.992l6.087 9.008L8668 59" fill="none" stroke="#ffffff" stroke-width="3" stroke-dasharray="30.570132351144682,7.146715158089574" stroke-dashoffset="37.716848" stroke-miterlimit="10"/><path d="M8653.115 26.356l3.058.951-8.478 27.261-3.058-.951z" fill="#ffffff"/><path d="M8637 30.937c-3.239 0-5.875 4.134-5.875 9.213 0 5.079 2.636 9.213 5.875 9.213s5.875-4.134 5.875-9.213c0-5.079-2.636-9.213-5.875-9.213zm0 1.536c2.709 0 4.896 3.429 4.896 7.677 0 4.249-2.187 7.677-4.896 7.677s-4.896-3.428-4.896-7.677c0-4.248 2.187-7.677 4.896-7.677z" fill="#ffffff" stroke="#ffffff" stroke-width="1.7"/><path d="M8666.5 30.937V50h-4.192V35.804s-1.897.81-4.058.81v-3.139c2.659-.582 4.677-1.541 5.708-2.538h2.542z" fill="#ffffff"/></g><g><path d="M8783.764 29.908l.001 38.637L8750.383 88 8717 68.817l.002-38.636 33.379-19.456 33.383 19.183z" fill="#ffffff" fill-rule="evenodd"/><path d="M8781.152 32.083l-.175 35.288-30.77 17.281-30.594-18.01.178-35.288 30.767-17.28 30.594 18.009z" fill="#03599f" fill-rule="evenodd"/><path d="M8737 59.992l6.087 9.008L8768 59" fill="none" stroke="#ffffff" stroke-width="3" stroke-dasharray="31.845701378459463,5.871146130774793" stroke-dashoffset="37.716848" stroke-miterlimit="10"/><path d="M8753.115 26.356l3.058.951-8.478 27.261-3.058-.951z" fill="#ffffff"/><path d="M8737 30.937c-3.239 0-5.875 4.134-5.875 9.213 0 5.079 2.636 9.213 5.875 9.213s5.875-4.134 5.875-9.213c0-5.079-2.636-9.213-5.875-9.213zm0 1.536c2.709 0 4.896 3.429 4.896 7.677 0 4.249-2.187 7.677-4.896 7.677s-4.896-3.428-4.896-7.677c0-4.248 2.187-7.677 4.896-7.677z" fill="#ffffff" stroke="#ffffff" stroke-width="1.7"/><path d="M8766.5 30.937V50h-4.192V35.804s-1.897.81-4.058.81v-3.139c2.659-.582 4.677-1.541 5.708-2.538h2.542z" fill="#ffffff"/></g><g><path d="M8883.764 29.908l.001 38.637L8850.383 88 8817 68.817l.002-38.636 33.379-19.456 33.383 19.183z" fill="#ffffff" fill-rule="evenodd"/><path d="M8881.152 32.083l-.175 35.288-30.77 17.281-30.594-18.01.178-35.288 30.767-17.28 30.594 18.009z" fill="#03599f" fill-rule="evenodd"/><path d="M8837 59.992l6.087 9.008L8868 59" fill="none" stroke="#ffffff" stroke-width="3" stroke-dasharray="32.93502767759362,4.781819831640637" stroke-dashoffset="37.716848" stroke-miterlimit="10"/><path d="M8853.115 26.356l3.058.951-8.478 27.261-3.058-.951z" fill="#ffffff"/><path d="M8837 30.937c-3.239 0-5.875 4.134-5.875 9.213 0 5.079 2.636 9.213 5.875 9.213s5.875-4.134 5.875-9.213c0-5.079-2.636-9.213-5.875-9.213zm0 1.536c2.709 0 4.896 3.429 4.896 7.677 0 4.249-2.187 7.677-4.896 7.677s-4.896-3.428-4.896-7.677c0-4.248 2.187-7.677 4.896-7.677z" fill="#ffffff" stroke="#ffffff" stroke-width="1.7"/><path d="M8866.5 30.937V50h-4.192V35.804s-1.897.81-4.058.81v-3.139c2.659-.582 4.677-1.541 5.708-2.538h2.542z" fill="#ffffff"/></g><g><path d="M8983.764 29.908l.001 38.637L8950.383 88 8917 68.817l.002-38.636 33.379-19.456 33.383 19.183z" fill="#ffffff" fill-rule="evenodd"/><path d="M8981.152 32.083l-.175 35.288-30.77 17.281-30.594-18.01.178-35.288 30.767-17.28 30.594 18.009z" fill="#03599f" fill-rule="evenodd"/><path d="M8937 59.992l6.087 9.008L8968 59" fill="none" stroke="#ffffff" stroke-width="3" stroke-dasharray="33.864754293068934,3.8520932161653247" stroke-dashoffset="37.716848" stroke-miterlimit="10"/><path d="M8953.115 26.356l3.058.951-8.478 27.261-3.058-.951z" fill="#ffffff"/><path d="M8937 30.937c-3.239 0-5.875 4.134-5.875 9.213 0 5.079 2.636 9.213 5.875 9.213s5.875-4.134 5.875-9.213c0-5.079-2.636-9.213-5.875-9.213zm0 1.536c2.709 0 4.896 3.429 4.896 7.677 0 4.249-2.187 7.677-4.896 7.677s-4.896-3.428-4.896-7.677c0-4.248 2.187-7.677 4.896-7.677z" fill="#ffffff" stroke="#ffffff" stroke-width="1.7"/><path d="M8966.5 30.937V50h-4.192V35.804s-1.897.81-4.058.81v-3.139c2.659-.582 4.677-1.541 5.708-2.538h2.542z" fill="#ffffff"/></g><g><path d="M9083.764 29.908l.001 38.637L9050.383 88 9017 68.817l.002-38.636 33.379-19.456 33.383 19.183z" fill="#ffffff" fill-rule="evenodd"/><path d="M9081.152 32.083l-.175 35.288-30.77 17.281-30.594-18.01.178-35.288 30.767-17.28 30.594 18.009z" fill="#03599f" fill-rule="evenodd"/><path d="M9037 59.992l6.087 9.008L9068 59" fill="none" stroke="#ffffff" stroke-width="3" stroke-dasharray="34.65647127717926,3.0603762320549994" stroke-dashoffset="37.716848" stroke-miterlimit="10"/><path d="M9053.115 26.356l3.058.951-8.478 27.261-3.058-.951z" fill="#ffffff"/><path d="M9037 30.937c-3.239 0-5.875 4.134-5.875 9.213 0 5.079 2.636 9.213 5.875 9.213s5.875-4.134 5.875-9.213c0-5.079-2.636-9.213-5.875-9.213zm0 1.536c2.709 0 4.896 3.429 4.896 7.677 0 4.249-2.187 7.677-4.896 7.677s-4.896-3.428-4.896-7.677c0-4.248 2.187-7.677 4.896-7.677z" fill="#ffffff" stroke="#ffffff" stroke-width="1.7"/><path d="M9066.5 30.937V50h-4.192V35.804s-1.897.81-4.058.81v-3.139c2.659-.582 4.677-1.541 5.708-2.538h2.542z" fill="#ffffff"/></g><g><path d="M9183.764 29.908l.001 38.637L9150.383 88 9117 68.817l.002-38.636 33.379-19.456 33.383 19.183z" fill="#ffffff" fill-rule="evenodd"/><path d="M9181.152 32.083l-.175 35.288-30.77 17.281-30.594-18.01.178-35.288 30.767-17.28 30.594 18.009z" fill="#03599f" fill-rule="evenodd"/><path d="M9137 59.992l6.087 9.008L9168 59" fill="none" stroke="#ffffff" stroke-width="3" stroke-dasharray="35.32778386067307,2.389063648561185" stroke-dashoffset="37.716848" stroke-miterlimit="10"/><path d="M9153.115 26.356l3.058.951-8.478 27.261-3.058-.951z" fill="#ffffff"/><path d="M9137 30.937c-3.239 0-5.875 4.134-5.875 9.213 0 5.079 2.636 9.213 5.875 9.213s5.875-4.134 5.875-9.213c0-5.079-2.636-9.213-5.875-9.213zm0 1.536c2.709 0 4.896 3.429 4.896 7.677 0 4.249-2.187 7.677-4.896 7.677s-4.896-3.428-4.896-7.677c0-4.248 2.187-7.677 4.896-7.677z" fill="#ffffff" stroke="#ffffff" stroke-width="1.7"/><path d="M9166.5 30.937V50h-4.192V35.804s-1.897.81-4.058.81v-3.139c2.659-.582 4.677-1.541 5.708-2.538h2.542z" fill="#ffffff"/></g><g><path d="M9283.764 29.908l.001 38.637L9250.383 88 9217 68.817l.002-38.636 33.379-19.456 33.383 19.183z" fill="#ffffff" fill-rule="evenodd"/><path d="M9281.152 32.083l-.175 35.288-30.77 17.281-30.594-18.01.178-35.288 30.767-17.28 30.594 18.009z" fill="#03599f" fill-rule="evenodd"/><path d="M9237 59.992l6.087 9.008L9268 59" fill="none" stroke="#ffffff" stroke-width="3" stroke-dasharray="35.8931690604502,1.823678448784055" stroke-dashoffset="37.716848" stroke-miterlimit="10"/><path d="M9253.115 26.356l3.058.951-8.478 27.261-3.058-.951z" fill="#ffffff"/><path d="M9237 30.937c-3.239 0-5.875 4.134-5.875 9.213 0 5.079 2.636 9.213 5.875 9.213s5.875-4.134 5.875-9.213c0-5.079-2.636-9.213-5.875-9.213zm0 1.536c2.709 0 4.896 3.429 4.896 7.677 0 4.249-2.187 7.677-4.896 7.677s-4.896-3.428-4.896-7.677c0-4.248 2.187-7.677 4.896-7.677z" fill="#ffffff" stroke="#ffffff" stroke-width="1.7"/><path d="M9266.5 30.937V50h-4.192V35.804s-1.897.81-4.058.81v-3.139c2.659-.582 4.677-1.541 5.708-2.538h2.542z" fill="#ffffff"/></g><g><path d="M9383.764 29.908l.001 38.637L9350.383 88 9317 68.817l.002-38.636 33.379-19.456 33.383 19.183z" fill="#ffffff" fill-rule="evenodd"/><path d="M9381.152 32.083l-.175 35.288-30.77 17.281-30.594-18.01.178-35.288 30.767-17.28 30.594 18.009z" fill="#03599f" fill-rule="evenodd"/><path d="M9337 59.992l6.087 9.008L9368 59" fill="none" stroke="#ffffff" stroke-width="3" stroke-dasharray="36.36464050108603,1.3522070081482267" stroke-dashoffset="37.716848" stroke-miterlimit="10"/><path d="M9353.115 26.356l3.058.951-8.478 27.261-3.058-.951z" fill="#ffffff"/><path d="M9337 30.937c-3.239 0-5.875 4.134-5.875 9.213 0 5.079 2.636 9.213 5.875 9.213s5.875-4.134 5.875-9.213c0-5.079-2.636-9.213-5.875-9.213zm0 1.536c2.709 0 4.896 3.429 4.896 7.677 0 4.249-2.187 7.677-4.896 7.677s-4.896-3.428-4.896-7.677c0-4.248 2.187-7.677 4.896-7.677z" fill="#ffffff" stroke="#ffffff" stroke-width="1.7"/><path d="M9366.5 30.937V50h-4.192V35.804s-1.897.81-4.058.81v-3.139c2.659-.582 4.677-1.541 5.708-2.538h2.542z" fill="#ffffff"/></g><g><path d="M9483.764 29.908l.001 38.637L9450.383 88 9417 68.817l.002-38.636 33.379-19.456 33.383 19.183z" fill="#ffffff" fill-rule="evenodd"/><path d="M9481.152 32.083l-.175 35.288-30.77 17.281-30.594-18.01.178-35.288 30.767-17.28 30.594 18.009z" fill="#03599f" fill-rule="evenodd"/><path d="M9437 59.992l6.087 9.008L9468 59" fill="none" stroke="#ffffff" stroke-width="3" stroke-dasharray="36.752258913210525,0.9645885960237307" stroke-dashoffset="37.716848" stroke-miterlimit="10"/><path d="M9453.115 26.356l3.058.951-8.478 27.261-3.058-.951z" fill="#ffffff"/><path d="M9437 30.937c-3.239 0-5.875 4.134-5.875 9.213 0 5.079 2.636 9.213 5.875 9.213s5.875-4.134 5.875-9.213c0-5.079-2.636-9.213-5.875-9.213zm0 1.536c2.709 0 4.896 3.429 4.896 7.677 0 4.249-2.187 7.677-4.896 7.677s-4.896-3.428-4.896-7.677c0-4.248 2.187-7.677 4.896-7.677z" fill="#ffffff" stroke="#ffffff" stroke-width="1.7"/><path d="M9466.5 30.937V50h-4.192V35.804s-1.897.81-4.058.81v-3.139c2.659-.582 4.677-1.541 5.708-2.538h2.542z" fill="#ffffff"/></g><g><path d="M9583.764 29.908l.001 38.637L9550.383 88 9517 68.817l.002-38.636 33.379-19.456 33.383 19.183z" fill="#ffffff" fill-rule="evenodd"/><path d="M9581.152 32.083l-.175 35.288-30.77 17.281-30.594-18.01.178-35.288 30.767-17.28 30.594 18.009z" fill="#03599f" fill-rule="evenodd"/><path d="M9537 59.992l6.087 9.008L9568 59" fill="none" stroke="#ffffff" stroke-width="3" stroke-dasharray="37.06452394170776,0.6523235675264967" stroke-dashoffset="37.716848" stroke-miterlimit="10"/><path d="M9553.115 26.356l3.058.951-8.478 27.261-3.058-.951z" fill="#ffffff"/><path d="M9537 30.937c-3.239 0-5.875 4.134-5.875 9.213 0 5.079 2.636 9.213 5.875 9.213s5.875-4.134 5.875-9.213c0-5.079-2.636-9.213-5.875-9.213zm0 1.536c2.709 0 4.896 3.429 4.896 7.677 0 4.249-2.187 7.677-4.896 7.677s-4.896-3.428-4.896-7.677c0-4.248 2.187-7.677 4.896-7.677z" fill="#ffffff" stroke="#ffffff" stroke-width="1.7"/><path d="M9566.5 30.937V50h-4.192V35.804s-1.897.81-4.058.81v-3.139c2.659-.582 4.677-1.541 5.708-2.538h2.542z" fill="#ffffff"/></g><g><path d="M9683.764 29.908l.001 38.637L9650.383 88 9617 68.817l.002-38.636 33.379-19.456 33.383 19.183z" fill="#ffffff" fill-rule="evenodd"/><path d="M9681.152 32.083l-.175 35.288-30.77 17.281-30.594-18.01.178-35.288 30.767-17.28 30.594 18.009z" fill="#03599f" fill-rule="evenodd"/><path d="M9637 59.992l6.087 9.008L9668 59" fill="none" stroke="#ffffff" stroke-width="3" stroke-dasharray="37.30867622006629,0.40817128916796486" stroke-dashoffset="37.716848" stroke-miterlimit="10"/><path d="M9653.115 26.356l3.058.951-8.478 27.261-3.058-.951z" fill="#ffffff"/><path d="M9637 30.937c-3.239 0-5.875 4.134-5.875 9.213 0 5.079 2.636 9.213 5.875 9.213s5.875-4.134 5.875-9.213c0-5.079-2.636-9.213-5.875-9.213zm0 1.536c2.709 0 4.896 3.429 4.896 7.677 0 4.249-2.187 7.677-4.896 7.677s-4.896-3.428-4.896-7.677c0-4.248 2.187-7.677 4.896-7.677z" fill="#ffffff" stroke="#ffffff" stroke-width="1.7"/><path d="M9666.5 30.937V50h-4.192V35.804s-1.897.81-4.058.81v-3.139c2.659-.582 4.677-1.541 5.708-2.538h2.542z" fill="#ffffff"/></g></svg>