<svg xmlns="http://www.w3.org/2000/svg" xmlns:xlink="http://www.w3.org/1999/xlink" style="isolation:isolate" viewBox="0 0 560 315" id="el_34fW7xC7p"><style>@-webkit-keyframes el_02QIAHs4A2_M645Adf9o_Animation{0%{-webkit-transform: translate(0px, -100px);transform: translate(0px, -100px);}33.33%{-webkit-transform: translate(0px, -50px);transform: translate(0px, -50px);}66.67%{-webkit-transform: translate(0px, 25px);transform: translate(0px, 25px);}100%{-webkit-transform: translate(0px, 0px);transform: translate(0px, 0px);}}@keyframes el_02QIAHs4A2_M645Adf9o_Animation{0%{-webkit-transform: translate(0px, -100px);transform: translate(0px, -100px);}33.33%{-webkit-transform: translate(0px, -50px);transform: translate(0px, -50px);}66.67%{-webkit-transform: translate(0px, 25px);transform: translate(0px, 25px);}100%{-webkit-transform: translate(0px, 0px);transform: translate(0px, 0px);}}#el_34fW7xC7p *{-webkit-animation-duration: 3s;animation-duration: 3s;-webkit-animation-timing-function: cubic-bezier(0, 0, 1, 1);animation-timing-function: cubic-bezier(0, 0, 1, 1);}#el_BhMaOkKsbk{fill: rgb(0,0,0);fill-opacity: 0;}#el_GWgbc8lXb1{fill: rgb(255,255,255);}#el_czGnvDB1Dk{fill: rgb(0,0,0);}#el_Vn0GzvuEAR{-webkit-transform: matrix(1,0,0,1,0,0);transform: matrix(1,0,0,1,0,0);fill: rgb(78,199,232);}#el_gmL_Fc0jcB{fill: rgb(255,255,255);}#el_T0RoWt1vDF{fill: rgb(78,199,232);}#el_02QIAHs4A2_M645Adf9o{-webkit-animation-name: el_02QIAHs4A2_M645Adf9o_Animation;animation-name: el_02QIAHs4A2_M645Adf9o_Animation;-webkit-transform-origin: 50% 50%;transform-origin: 50% 50%;transform-box: fill-box;-webkit-transform: translate(0px, 0px);transform: translate(0px, 0px);}</style><defs><clipPath id="_clipPath_e3ZMbgVEdMVtukhzfCf7gaLvbfBVuOTV"><rect width="560" height="315"/></clipPath></defs><g clip-path="url(#_clipPath_e3ZMbgVEdMVtukhzfCf7gaLvbfBVuOTV)" id="el_6E8IWHqVJk"><rect width="560" height="315" id="el_BhMaOkKsbk"/><g id="el_02QIAHs4A2_M645Adf9o" data-animator-group="true" data-animator-type="0"><g id="el_02QIAHs4A2"><path d=" M 417.637 94.72 L 528.021 94.72 L 528.021 177.555 L 417.637 177.555 L 417.637 94.72 Z  M 458.662 177.555 L 486.525 177.555 L 486.525 189.021 L 458.662 189.021 L 458.662 177.555 L 458.662 177.555 Z " id="el_GWgbc8lXb1"/><path d=" M 527.99 92.741 L 417.637 92.741 C 416.537 92.741 415.658 93.621 415.658 94.72 L 415.658 177.555 C 415.658 178.655 416.537 179.534 417.637 179.534 L 456.683 179.534 L 456.683 187.042 L 446.159 187.042 C 445.06 187.042 444.18 187.922 444.18 189.021 C 444.18 190.12 445.06 191 446.159 191 L 499.247 191 C 500.346 191 501.226 190.12 501.226 189.021 C 501.226 187.922 500.346 187.042 499.247 187.042 L 488.504 187.042 L 488.504 179.534 L 528.021 179.534 C 529.12 179.534 530 178.655 530 177.555 L 530 94.72 C 529.967 93.629 529.081 92.757 527.99 92.741 L 527.99 92.741 Z  M 526.011 96.73 L 526.011 159.022 L 419.616 159.022 L 419.616 96.73 L 526.011 96.73 L 526.011 96.73 Z  M 484.514 187.042 L 460.641 187.042 L 460.641 179.534 L 484.514 179.534 L 484.514 187.042 Z  M 526.011 175.576 L 419.616 175.576 L 419.616 162.948 L 526.011 162.948 L 526.011 175.576 Z " id="el_czGnvDB1Dk"/><rect x="422.631" y="100.092" width="99.735" height="56.009" id="el_Vn0GzvuEAR"/><path d=" M 444.589 141.776 C 444.589 143.944 442.83 145.703 440.694 145.703 C 438.526 145.703 436.767 143.944 436.767 141.776 C 436.767 139.609 438.526 137.881 440.694 137.881 C 442.861 137.85 444.589 139.609 444.589 141.776 Z  M 513.822 118.688 C 513.822 120.855 512.063 122.583 509.927 122.583 C 507.76 122.583 506.001 120.824 506.001 118.688 C 506.001 116.552 507.76 114.793 509.927 114.793 C 512.063 114.793 513.822 116.52 513.822 118.688 Z  M 472.515 125.222 C 472.515 127.389 470.756 129.117 468.588 129.117 C 466.421 129.117 464.693 127.358 464.693 125.222 C 464.693 123.054 466.452 121.295 468.588 121.295 C 470.756 121.295 472.515 123.054 472.515 125.222 L 472.515 125.222 Z  M 480.399 137.85 C 480.399 140.001 478.655 141.745 476.504 141.745 C 474.353 141.745 472.609 140.001 472.609 137.85 C 472.609 135.698 474.353 133.954 476.504 133.954 C 478.655 133.954 480.399 135.698 480.399 137.85 Z  M 441.353 142.907 L 440.003 140.614 L 468.714 123.494 L 476.441 136.091 L 509.268 117.526 L 510.556 119.85 L 475.53 139.64 L 467.834 127.107 L 441.353 142.907 Z " id="el_gmL_Fc0jcB"/></g></g><path d=" M -3.5 0 L -3.5 315 L 560 315 L -3.5 0 Z " fill-rule="evenodd" id="el_T0RoWt1vDF"/></g><script>(function(){var a=document.querySelector('#el_34fW7xC7p'),b=a.querySelectorAll('style'),c=function(d){b.forEach(function(f){var g=f.textContent;g&amp;&amp;(f.textContent=g.replace(/transform-box:[^;\r\n]*/gi,'transform-box: '+d))})};c('initial'),window.requestAnimationFrame(function(){return c('fill-box')})})();</script></svg>