<?xml version="1.0" standalone="no"?><!-- Generator: Gravit.io --><svg xmlns="http://www.w3.org/2000/svg" xmlns:xlink="http://www.w3.org/1999/xlink" style="isolation:isolate" viewBox="0 0 1200 400" width="1200" height="400"><path d=" M 0 0 L 0 400 L 1200 400 L 0 0 Z " fill-rule="evenodd" fill="rgb(78,199,232)"/><g><path d=" M 979.175 92.54 L 1156.262 92.54 L 1156.262 225.431 L 979.175 225.431 L 979.175 92.54 Z  M 1044.99 225.431 L 1089.691 225.431 L 1089.691 243.825 L 1044.99 243.825 L 1044.99 225.431 L 1044.99 225.431 Z " fill="rgb(255,255,255)"/><path d=" M 1156.212 89.365 L 979.175 89.365 C 977.411 89.365 976 90.776 976 92.54 L 976 225.431 C 976 227.195 977.411 228.606 979.175 228.606 L 1041.816 228.606 L 1041.816 240.65 L 1024.933 240.65 C 1023.169 240.65 1021.758 242.061 1021.758 243.825 C 1021.758 245.589 1023.169 247 1024.933 247 L 1110.1 247 C 1111.864 247 1113.275 245.589 1113.275 243.825 C 1113.275 242.061 1111.864 240.65 1110.1 240.65 L 1092.865 240.65 L 1092.865 228.606 L 1156.262 228.606 C 1158.026 228.606 1159.437 227.195 1159.437 225.431 L 1159.437 92.54 C 1159.383 90.79 1157.963 89.391 1156.212 89.365 L 1156.212 89.365 Z  M 1153.037 95.765 L 1153.037 195.698 L 982.35 195.698 L 982.35 95.765 L 1153.037 95.765 L 1153.037 95.765 Z  M 1086.465 240.65 L 1048.165 240.65 L 1048.165 228.606 L 1086.465 228.606 L 1086.465 240.65 Z  M 1153.037 222.256 L 982.35 222.256 L 982.35 201.997 L 1153.037 201.997 L 1153.037 222.256 Z " fill="rgb(0,0,0)"/><rect x="987.188" y="101.158" width="160.003" height="89.854" transform="matrix(1,0,0,1,0,0)" fill="rgb(78,199,232)"/><path d=" M 1022.414 168.031 C 1022.414 171.509 1019.591 174.331 1016.165 174.331 C 1012.687 174.331 1009.865 171.509 1009.865 168.031 C 1009.865 164.554 1012.687 161.782 1016.165 161.782 C 1019.642 161.732 1022.414 164.554 1022.414 168.031 Z  M 1133.484 130.991 C 1133.484 134.469 1130.662 137.24 1127.235 137.24 C 1123.757 137.24 1120.935 134.418 1120.935 130.991 C 1120.935 127.564 1123.757 124.742 1127.235 124.742 C 1130.662 124.742 1133.484 127.514 1133.484 130.991 Z  M 1067.215 141.473 C 1067.215 144.951 1064.392 147.722 1060.915 147.722 C 1057.438 147.722 1054.666 144.9 1054.666 141.473 C 1054.666 137.996 1057.488 135.174 1060.915 135.174 C 1064.392 135.174 1067.215 137.996 1067.215 141.473 L 1067.215 141.473 Z  M 1079.864 161.732 C 1079.864 165.183 1077.066 167.981 1073.615 167.981 C 1070.163 167.981 1067.366 165.183 1067.366 161.732 C 1067.366 158.281 1070.163 155.483 1073.615 155.483 C 1077.066 155.483 1079.864 158.281 1079.864 161.732 Z  M 1017.223 169.846 L 1015.056 166.167 L 1061.117 138.702 L 1073.514 158.91 L 1126.176 129.127 L 1128.243 132.856 L 1072.052 164.605 L 1059.706 144.497 L 1017.223 169.846 Z " fill="rgb(255,255,255)"/></g></svg>